<svg width="37" height="38" viewBox="0 0 37 38" fill="none" xmlns="http://www.w3.org/2000/svg">
<mask id="path-1-inside-1_59_682" fill="white">
<path d="M18.2539 0C28.3353 0 36.5086 8.17252 36.5088 18.2539C36.5088 28.3355 28.3355 36.5088 18.2539 36.5088C15.01 36.5087 11.9642 35.6614 9.32422 34.1777L3.38477 36.9199C2.59966 37.282 1.75567 36.5442 2.00977 35.7178L3.90918 29.5439C1.46096 26.4374 0 22.5161 0 18.2539C0.000203064 8.17264 8.17264 0.000203076 18.2539 0Z"/>
</mask>
<path d="M18.2539 0V-1H18.2539L18.2539 0ZM36.5088 18.2539H37.5088V18.2539L36.5088 18.2539ZM18.2539 36.5088L18.2539 37.5088H18.2539V36.5088ZM9.32422 34.1777L9.81416 33.306L9.36884 33.0557L8.90505 33.2698L9.32422 34.1777ZM3.38477 36.9199L3.80354 37.828L3.80394 37.8278L3.38477 36.9199ZM2.00977 35.7178L1.05398 35.4237L1.05392 35.4239L2.00977 35.7178ZM3.90918 29.5439L4.86497 29.838L5.01916 29.3368L4.69459 28.925L3.90918 29.5439ZM0 18.2539L-1 18.2539V18.2539H0ZM18.2539 0V1C27.7831 1 35.5086 8.72486 35.5088 18.2539L36.5088 18.2539L37.5088 18.2539C37.5086 7.62018 28.8876 -1 18.2539 -1V0ZM36.5088 18.2539H35.5088C35.5088 27.7832 27.7832 35.5088 18.2539 35.5088V36.5088V37.5088C28.8878 37.5088 37.5088 28.8878 37.5088 18.2539H36.5088ZM18.2539 36.5088L18.2539 35.5088C15.1863 35.5087 12.3086 34.7079 9.81416 33.306L9.32422 34.1777L8.83428 35.0495C11.6197 36.615 14.8337 37.5087 18.2539 37.5088L18.2539 36.5088ZM9.32422 34.1777L8.90505 33.2698L2.96559 36.012L3.38477 36.9199L3.80394 37.8278L9.74339 35.0856L9.32422 34.1777ZM3.38477 36.9199L2.96599 36.0118L2.96561 36.0117L2.00977 35.7178L1.05392 35.4239C0.545648 37.077 2.23355 38.552 3.80354 37.828L3.38477 36.9199ZM2.00977 35.7178L2.96555 36.0118L4.86497 29.838L3.90918 29.5439L2.95339 29.2499L1.05398 35.4237L2.00977 35.7178ZM3.90918 29.5439L4.69459 28.925C2.38039 25.9885 1 22.2836 1 18.2539H0H-1C-1 22.7486 0.541527 26.8863 3.12377 30.1629L3.90918 29.5439ZM0 18.2539L1 18.2539C1.00019 8.72493 8.72493 1.00019 18.2539 1L18.2539 0L18.2539 -1C7.62035 -0.999786 -0.999786 7.62035 -1 18.2539L0 18.2539Z" fill="#8E8D8A" mask="url(#path-1-inside-1_59_682)"/>
<path d="M13.2366 11.0123C13.4376 10.9971 13.6401 10.9971 13.8411 11.0062C13.9221 11.0123 14.0031 11.0214 14.0841 11.0305C14.3226 11.0577 14.5851 11.2047 14.6736 11.4078C15.1206 12.4322 15.5557 13.4642 15.9757 14.4992C16.0687 14.7295 16.0132 15.025 15.8362 15.3129C15.7144 15.5076 15.5827 15.6958 15.4417 15.8767C15.2722 16.0964 14.9076 16.4995 14.9076 16.4995C14.9076 16.4995 14.7591 16.6783 14.8161 16.9011C14.8371 16.9859 14.9061 17.1087 14.9691 17.2117L15.0576 17.3557C15.4417 18.0028 15.9577 18.6589 16.5877 19.2772C16.7677 19.453 16.9432 19.6333 17.1322 19.8015C17.8342 20.4274 18.6292 20.9381 19.4872 21.3169L19.4947 21.32C19.6222 21.376 19.6867 21.4063 19.8727 21.4867C19.9657 21.5261 20.0617 21.5609 20.1592 21.5867C20.26 21.6126 20.3661 21.6077 20.4641 21.5726C20.5621 21.5376 20.6476 21.4739 20.7097 21.3897C21.7957 20.0607 21.8947 19.9743 21.9037 19.9743V19.9773C21.9792 19.9062 22.0688 19.8523 22.1666 19.8191C22.2644 19.7859 22.3681 19.7742 22.4707 19.7849C22.5607 19.7909 22.6523 19.8076 22.7363 19.8455C23.5328 20.2137 24.8363 20.7881 24.8363 20.7881L25.7093 21.1836C25.8563 21.2548 25.9898 21.423 25.9943 21.5852C26.0003 21.6867 26.0093 21.8503 25.9748 22.1504C25.9268 22.5429 25.8098 23.0142 25.6928 23.2612C25.6127 23.4297 25.5063 23.5843 25.3778 23.7188C25.2264 23.8794 25.0607 24.0255 24.8828 24.1553C24.8212 24.202 24.7587 24.2475 24.6953 24.2916C24.5087 24.4112 24.317 24.5225 24.1208 24.625C23.7346 24.8323 23.308 24.9513 22.8713 24.9736C22.5937 24.9887 22.3162 25.0099 22.0372 24.9948C22.0252 24.9948 21.1852 24.8629 21.1852 24.8629C19.0526 24.2963 17.0803 23.2346 15.4252 21.7625C15.0861 21.4609 14.7726 21.1366 14.4516 20.8138C13.1166 19.4727 12.1086 18.0255 11.4966 16.6586C11.1834 15.9877 11.0141 15.2575 11.0001 14.5159C10.9939 13.5958 11.2916 12.6999 11.8461 11.97C11.9556 11.8275 12.0591 11.679 12.2376 11.5078C12.4281 11.326 12.5481 11.229 12.6786 11.1623C12.8521 11.0744 13.0414 11.0229 13.2351 11.0108L13.2366 11.0123Z" fill="#8E8D8A"/>
</svg>
