<svg width="164" height="61" viewBox="0 0 164 61" fill="none" xmlns="http://www.w3.org/2000/svg">
    <path d="M67.4932 40.9819V25.8643H79.8524V40.9819H77.1796V28.2806H70.166V40.9819H67.4932ZM83.2379 40.9819V25.8643H88.9258C90.0662 25.8643 91.0498 26.0425 91.8766 26.3989C92.7176 26.741 93.3663 27.2898 93.8224 28.0454C94.2928 28.8009 94.528 29.7916 94.528 31.0176C94.528 32.1865 94.2715 33.163 93.7583 33.947C93.2451 34.731 92.5466 35.3226 91.6628 35.7218C90.7789 36.1067 89.7668 36.2991 88.6264 36.2991H85.9108V40.9819H83.2379ZM85.9108 33.9042H88.5836C89.5672 33.9042 90.3584 33.669 90.9571 33.1986C91.5558 32.7282 91.8552 31.9869 91.8552 30.9748C91.8552 30.091 91.6057 29.4281 91.1068 28.9862C90.6079 28.53 89.8381 28.3019 88.7975 28.3019H85.9108V33.9042ZM103.687 41.153C102.133 41.153 100.808 40.8251 99.71 40.1694C98.6266 39.5136 97.7927 38.6013 97.2082 37.4324C96.638 36.2635 96.3529 34.9306 96.3529 33.4338C96.3529 31.9085 96.6452 30.5685 97.2296 29.4138C97.8141 28.2449 98.6551 27.3326 99.7528 26.6769C100.85 26.0069 102.176 25.6719 103.73 25.6719C105.284 25.6719 106.602 25.9997 107.686 26.6555C108.783 27.3112 109.625 28.2235 110.209 29.3925C110.793 30.5471 111.086 31.88 111.086 33.391C111.086 34.8878 110.793 36.2207 110.209 37.3896C109.639 38.5586 108.798 39.478 107.686 40.148C106.588 40.818 105.255 41.153 103.687 41.153ZM103.73 38.6726C104.813 38.6726 105.697 38.4231 106.381 37.9242C107.066 37.4253 107.565 36.7767 107.878 35.9784C108.206 35.1801 108.37 34.3319 108.37 33.4338C108.37 32.7496 108.277 32.0938 108.092 31.4666C107.921 30.8394 107.643 30.2763 107.258 29.7774C106.888 29.2784 106.41 28.8864 105.826 28.6013C105.241 28.3019 104.543 28.1523 103.73 28.1523C102.661 28.1523 101.777 28.4017 101.079 28.9007C100.394 29.3996 99.8882 30.0482 99.5604 30.8465C99.2325 31.6448 99.0685 32.5072 99.0685 33.4338C99.0685 34.3461 99.2325 35.2015 99.5604 35.9997C99.8882 36.798 100.394 37.4466 101.079 37.9456C101.777 38.4303 102.661 38.6726 103.73 38.6726ZM113.621 40.9819V25.8643H124.291V28.3019H116.294V32.2791H123.243V34.674H116.294V38.5443H124.291V40.9819H113.621ZM126.839 40.9819V25.8643H129.512V32.3647H131.693L135.948 25.8643H138.984L133.938 33.2627L139.006 40.9819H135.884L131.821 34.8023H129.512V40.9819H126.839ZM144.142 40.9819V28.3019H139.417V25.8643H151.519V28.3019H146.794V40.9819H144.142Z" fill="#EAE7DC"/>
    <path d="M67.0999 24.9344V18.5624C67.6701 18.5624 68.0906 18.4341 68.3614 18.1775C68.6465 17.9066 68.8532 17.5716 68.9815 17.1725C69.1098 16.7733 69.2096 16.3386 69.2809 15.8681C69.3522 15.3835 69.4092 14.8917 69.452 14.3927C69.509 13.8938 69.5518 13.402 69.5803 12.9173C69.6515 11.7056 69.7014 10.5224 69.7299 9.36777C69.7585 8.19884 69.7798 7.03704 69.7941 5.88237H80.1434V18.5624H81.9609V24.9344H79.288V21H69.7727V24.9344H67.0999ZM71.3337 18.5624H77.4705V8.32001H72.2959L72.1462 13.4519C72.1319 13.7655 72.1106 14.1361 72.082 14.5638C72.0678 14.9772 72.0322 15.412 71.9751 15.8681C71.9181 16.3243 71.8397 16.7876 71.7399 17.258C71.6401 17.7142 71.5047 18.149 71.3337 18.5624ZM82.7968 21L88.5916 5.88237H91.7776L97.5509 21H94.6643L93.6593 18.1989H86.6885L85.6621 21H82.7968ZM87.5438 15.7826H92.7826L90.1739 8.5766L87.5438 15.7826ZM106.274 21V15.7398C105.789 15.7826 105.376 15.8182 105.033 15.8467C104.706 15.8753 104.378 15.8966 104.05 15.9109C103.722 15.9252 103.337 15.9323 102.895 15.9323C101.712 15.9323 100.707 15.7683 99.8802 15.4405C99.0534 15.1126 98.419 14.578 97.9771 13.8368C97.5494 13.0812 97.3356 12.062 97.3356 10.779V5.88237H100.008V10.3941C100.008 11.2209 100.13 11.8624 100.372 12.3186C100.614 12.7605 100.992 13.067 101.505 13.2381C102.018 13.3949 102.674 13.4733 103.472 13.4733C103.872 13.4733 104.328 13.459 104.841 13.4305C105.354 13.402 105.832 13.3521 106.274 13.2808V5.88237H108.946V21H106.274ZM112.319 21V5.88237H114.992V12.34H122.048V5.88237H124.7V21H122.048V14.7776H114.992V21H112.319ZM128.085 21V5.88237H130.758V11.6985H133.131C133.844 11.6985 134.535 11.7626 135.205 11.8909C135.89 12.0192 136.503 12.2473 137.044 12.5752C137.586 12.8888 138.014 13.3378 138.327 13.9223C138.655 14.4925 138.819 15.2338 138.819 16.1461C138.819 17.0727 138.655 17.8496 138.327 18.4768C138.014 19.0898 137.572 19.5887 137.002 19.9736C136.446 20.3443 135.804 20.608 135.077 20.7648C134.35 20.9216 133.587 21 132.789 21H128.085ZM130.758 18.5624H132.725C133.181 18.5624 133.616 18.5339 134.029 18.4768C134.443 18.4056 134.806 18.2915 135.12 18.1347C135.448 17.9636 135.704 17.7284 135.89 17.4291C136.075 17.1155 136.168 16.7163 136.168 16.2316C136.168 15.747 136.075 15.3621 135.89 15.077C135.719 14.7776 135.469 14.5567 135.141 14.4141C134.828 14.2716 134.471 14.1789 134.072 14.1361C133.673 14.0934 133.26 14.072 132.832 14.072H130.758V18.5624ZM140.872 21V5.88237H143.523V21H140.872ZM146.899 21V5.88237H149.572V16.5951L157.099 5.88237H159.494V21H156.821V10.4155L149.273 21H146.899ZM153.229 4.856C152.402 4.856 151.689 4.7277 151.09 4.47111C150.492 4.21452 150.021 3.82963 149.679 3.31644C149.351 2.789 149.173 2.14751 149.144 1.39199H151.411C151.44 1.87666 151.618 2.25443 151.946 2.52528C152.288 2.78187 152.722 2.91017 153.25 2.91017C153.777 2.91017 154.205 2.78187 154.533 2.52528C154.861 2.25443 155.032 1.87666 155.046 1.39199H157.334C157.306 2.14751 157.12 2.789 156.778 3.31644C156.45 3.82963 155.98 4.21452 155.367 4.47111C154.768 4.7277 154.055 4.856 153.229 4.856Z" fill="#E85A4F"/>
    <rect x="7.72461" y="19.0112" width="3.39675" height="21.8666" fill="#EAE7DC"/>
    <path d="M53.79 8.18506L53.79 11.5818L2.62629 31.3254L2.62629 27.9287L53.79 8.18506Z" fill="#EAE7DC"/>
    <rect x="45.0918" y="6.06104" width="3.39675" height="32.0569" fill="#EAE7DC"/>
    <rect x="25.9756" y="24.2437" width="3.46336" height="16.451" fill="#EAE7DC"/>
    <rect x="35.499" y="24.2437" width="3.46336" height="16.451" fill="#EAE7DC"/>
    <rect x="37.2314" y="24.2437" width="3.46336" height="11.2559" transform="rotate(90 37.2314 24.2437)" fill="#EAE7DC"/>
    <rect x="53.79" y="37.4814" width="3.39676" height="50.5267" transform="rotate(90 53.79 37.4814)" fill="#EAE7DC"/>
    <path d="M16.6403 8.8208L16.6407 12.3042L10.9087 14.659L10.9083 11.1755L16.6403 8.8208Z" fill="#EAE7DC"/>
    <path d="M2.20569 16.0386L2.20528 19.522L7.9373 21.8767L7.93771 18.3933L2.20569 16.0386Z" fill="#EAE7DC"/>
    <rect x="7.7247" y="6.06104" width="3.39675" height="32.0569" fill="#EAE7DC"/>
    <path d="M7.18238 11.9391C7.24993 12.1446 7.13707 12.3647 6.93075 12.4298C4.21622 13.2864 1.67619 11.984 0.787471 9.27986C0.719922 9.07432 0.832781 8.85422 1.0391 8.78911C3.75363 7.93249 6.29366 9.23489 7.18238 11.9391Z" fill="#EAE7DC"/>
    <path d="M12.0354 20.6451C11.9678 20.8507 12.0807 21.0708 12.287 21.1359C15.0016 21.9925 17.5416 20.6901 18.4303 17.9859C18.4979 17.7804 18.385 17.5603 18.1787 17.4952C15.4641 16.6385 12.9241 17.9409 12.0354 20.6451Z" fill="#EAE7DC"/>
    <path d="M0.747 59.0845V52.7215H5.85V59.0845H4.896V53.5855H1.701V59.0845H0.747ZM6.71759 59.1385V58.2115C6.88559 58.2115 7.02659 58.1785 7.14059 58.1125C7.26059 58.0405 7.35659 57.9445 7.42859 57.8245C7.50659 57.6985 7.56059 57.5575 7.59059 57.4015C7.63259 57.2215 7.66259 57.0355 7.68059 56.8435C7.69859 56.6515 7.71059 56.4595 7.71659 56.2675C7.72859 56.0755 7.73459 55.8955 7.73459 55.7275L7.77959 52.7215H12.1176V59.0845H11.1636V53.5945H8.70659L8.67059 55.4215C8.65859 55.8655 8.64659 56.2915 8.63459 56.6995C8.62259 57.1015 8.58059 57.4675 8.50859 57.7975C8.44259 58.1215 8.31659 58.3915 8.13059 58.6075C7.98059 58.7815 7.79159 58.9105 7.56359 58.9945C7.34159 59.0785 7.05959 59.1265 6.71759 59.1385ZM12.9302 59.0845L15.3332 52.7215H16.5662L18.9602 59.0845H17.9342L17.4662 57.8065H14.4242L13.9562 59.0845H12.9302ZM14.7392 56.9515H17.1512L15.9452 53.6305L14.7392 56.9515ZM19.7665 59.0845V52.7215H20.7205V55.5205H23.9065V52.7215H24.8605V59.0845H23.9065V56.3935H20.7205V59.0845H19.7665ZM26.3583 59.0845V52.7215H27.3123V57.5455L30.5973 52.7215H31.5153V59.0845H30.5703V54.3055L27.2673 59.0845H26.3583ZM33.0116 59.0845V52.7215H35.3066C35.7806 52.7215 36.1886 52.7965 36.5306 52.9465C36.8786 53.0965 37.1456 53.3305 37.3316 53.6485C37.5176 53.9605 37.6106 54.3655 37.6106 54.8635C37.6106 55.3435 37.5026 55.7455 37.2866 56.0695C37.0766 56.3935 36.7886 56.6395 36.4226 56.8075C36.0566 56.9695 35.6396 57.0505 35.1716 57.0505H33.9656V59.0845H33.0116ZM33.9656 56.1865H35.1356C35.5916 56.1865 35.9576 56.0815 36.2336 55.8715C36.5096 55.6555 36.6476 55.3105 36.6476 54.8365C36.6476 54.4225 36.5336 54.1135 36.3056 53.9095C36.0776 53.6995 35.7326 53.5945 35.2706 53.5945H33.9656V56.1865ZM39.0128 59.0935V58.1935C39.2648 58.1935 39.4808 58.1755 39.6608 58.1395C39.8468 58.0975 40.0118 58.0195 40.1558 57.9055C40.2998 57.7915 40.4348 57.6205 40.5608 57.3925L38.0858 52.7215H39.2018L41.0828 56.4385L42.5858 52.7215H43.6118L42.3428 55.6825C42.2588 55.8865 42.1568 56.1295 42.0368 56.4115C41.9168 56.6875 41.7848 56.9725 41.6408 57.2665C41.5028 57.5545 41.3528 57.8215 41.1908 58.0675C41.0348 58.3135 40.8698 58.5055 40.6958 58.6435C40.4798 58.8235 40.2338 58.9435 39.9578 59.0035C39.6878 59.0635 39.3728 59.0935 39.0128 59.0935ZM44.3408 59.0845V52.7215H45.2948V57.5455L48.5798 52.7215H49.4978V59.0845H48.5527V54.3055L45.2498 59.0845H44.3408ZM46.9328 52.2355C46.5848 52.2355 46.2848 52.1815 46.0328 52.0735C45.7868 51.9655 45.5948 51.8065 45.4568 51.5965C45.3248 51.3865 45.2528 51.1285 45.2408 50.8225H46.0958C46.1018 51.0445 46.1798 51.2125 46.3298 51.3265C46.4858 51.4405 46.6868 51.4975 46.9328 51.4975C47.1788 51.4975 47.3768 51.4405 47.5268 51.3265C47.6768 51.2125 47.7578 51.0445 47.7698 50.8225H48.6158C48.6098 51.1285 48.5378 51.3865 48.3998 51.5965C48.2618 51.8065 48.0698 51.9655 47.8238 52.0735C47.5778 52.1815 47.2808 52.2355 46.9328 52.2355ZM51.4351 59.1745C51.2551 59.1745 51.1051 59.1175 50.9851 59.0035C50.8711 58.8895 50.8141 58.7395 50.8141 58.5535C50.8141 58.3675 50.8741 58.2175 50.9941 58.1035C51.1141 57.9835 51.2611 57.9235 51.4351 57.9235C51.6091 57.9235 51.7531 57.9835 51.8671 58.1035C51.9871 58.2175 52.0471 58.3675 52.0471 58.5535C52.0471 58.7395 51.9871 58.8895 51.8671 59.0035C51.7531 59.1175 51.6091 59.1745 51.4351 59.1745ZM58.1394 59.1565C57.4854 59.1565 56.9364 59.0185 56.4924 58.7425C56.0544 58.4665 55.7244 58.0855 55.5024 57.5995C55.2804 57.1135 55.1694 56.5525 55.1694 55.9165C55.1694 55.2805 55.2804 54.7165 55.5024 54.2245C55.7304 53.7325 56.0634 53.3485 56.5014 53.0725C56.9454 52.7905 57.4944 52.6495 58.1484 52.6495C58.6224 52.6495 59.0364 52.7275 59.3904 52.8835C59.7444 53.0335 60.0294 53.2495 60.2454 53.5315C60.4674 53.8075 60.6144 54.1375 60.6864 54.5215H59.7504C59.6604 54.2155 59.4774 53.9725 59.2014 53.7925C58.9254 53.6125 58.5714 53.5225 58.1394 53.5225C57.6594 53.5225 57.2724 53.6335 56.9784 53.8555C56.6904 54.0775 56.4804 54.3685 56.3484 54.7285C56.2164 55.0825 56.1504 55.4665 56.1504 55.8805C56.1504 56.3065 56.2194 56.7025 56.3574 57.0685C56.4954 57.4345 56.7144 57.7285 57.0144 57.9505C57.3144 58.1725 57.6984 58.2835 58.1664 58.2835C58.4544 58.2835 58.7094 58.2445 58.9314 58.1665C59.1534 58.0825 59.3394 57.9655 59.4894 57.8155C59.6394 57.6595 59.7414 57.4795 59.7954 57.2755H60.7944C60.7164 57.6655 60.5574 58.0015 60.3174 58.2835C60.0774 58.5655 59.7744 58.7815 59.4084 58.9315C59.0424 59.0815 58.6194 59.1565 58.1394 59.1565ZM63.2256 59.0845V53.5945H61.2096V52.7215H66.1866V53.5945H64.1796V59.0845H63.2256ZM67.0517 59.0845V52.7215H69.3467C69.8207 52.7215 70.2287 52.7965 70.5707 52.9465C70.9187 53.0965 71.1857 53.3305 71.3717 53.6485C71.5577 53.9605 71.6507 54.3655 71.6507 54.8635C71.6507 55.3435 71.5427 55.7455 71.3267 56.0695C71.1167 56.3935 70.8287 56.6395 70.4627 56.8075C70.0967 56.9695 69.6797 57.0505 69.2117 57.0505H68.0057V59.0845H67.0517ZM68.0057 56.1865H69.1757C69.6317 56.1865 69.9977 56.0815 70.2737 55.8715C70.5497 55.6555 70.6877 55.3105 70.6877 54.8365C70.6877 54.4225 70.5737 54.1135 70.3457 53.9095C70.1177 53.6995 69.7727 53.5945 69.3107 53.5945H68.0057V56.1865ZM75.5347 59.1565C74.8807 59.1565 74.3257 59.0185 73.8697 58.7425C73.4197 58.4605 73.0777 58.0735 72.8437 57.5815C72.6097 57.0895 72.4927 56.5315 72.4927 55.9075C72.4927 55.2775 72.6097 54.7165 72.8437 54.2245C73.0777 53.7325 73.4227 53.3485 73.8787 53.0725C74.3347 52.7905 74.8897 52.6495 75.5437 52.6495C76.2037 52.6495 76.7587 52.7875 77.2087 53.0635C77.6587 53.3395 78.0007 53.7235 78.2347 54.2155C78.4687 54.7075 78.5857 55.2685 78.5857 55.8985C78.5857 56.5225 78.4687 57.0805 78.2347 57.5725C78.0007 58.0645 77.6557 58.4515 77.1997 58.7335C76.7497 59.0155 76.1947 59.1565 75.5347 59.1565ZM75.5437 58.2835C76.0237 58.2835 76.4167 58.1725 76.7227 57.9505C77.0287 57.7285 77.2537 57.4375 77.3977 57.0775C77.5417 56.7175 77.6137 56.3275 77.6137 55.9075C77.6137 55.5895 77.5717 55.2865 77.4877 54.9985C77.4097 54.7105 77.2867 54.4555 77.1187 54.2335C76.9507 54.0115 76.7347 53.8375 76.4707 53.7115C76.2067 53.5855 75.8977 53.5225 75.5437 53.5225C75.0697 53.5225 74.6767 53.6335 74.3647 53.8555C74.0587 54.0775 73.8307 54.3685 73.6807 54.7285C73.5307 55.0885 73.4557 55.4815 73.4557 55.9075C73.4557 56.3275 73.5277 56.7175 73.6717 57.0775C73.8217 57.4375 74.0497 57.7285 74.3557 57.9505C74.6677 58.1725 75.0637 58.2835 75.5437 58.2835ZM79.7255 59.0845V52.7215H80.6795V57.5455L83.9645 52.7215H84.8825V59.0845H83.9375V54.3055L80.6345 59.0845H79.7255ZM82.3175 52.2355C81.9695 52.2355 81.6695 52.1815 81.4175 52.0735C81.1715 51.9655 80.9795 51.8065 80.8415 51.5965C80.7095 51.3865 80.6375 51.1285 80.6255 50.8225H81.4805C81.4865 51.0445 81.5645 51.2125 81.7145 51.3265C81.8705 51.4405 82.0715 51.4975 82.3175 51.4975C82.5635 51.4975 82.7615 51.4405 82.9115 51.3265C83.0615 51.2125 83.1425 51.0445 83.1545 50.8225H84.0005C83.9945 51.1285 83.9225 51.3865 83.7845 51.5965C83.6465 51.8065 83.4545 51.9655 83.2085 52.0735C82.9625 52.1815 82.6655 52.2355 82.3175 52.2355ZM86.8198 59.1745C86.6398 59.1745 86.4898 59.1175 86.3698 59.0035C86.2558 58.8895 86.1988 58.7395 86.1988 58.5535C86.1988 58.3675 86.2588 58.2175 86.3788 58.1035C86.4988 57.9835 86.6458 57.9235 86.8198 57.9235C86.9938 57.9235 87.1378 57.9835 87.2518 58.1035C87.3718 58.2175 87.4318 58.3675 87.4318 58.5535C87.4318 58.7395 87.3718 58.8895 87.2518 59.0035C87.1378 59.1175 86.9938 59.1745 86.8198 59.1745ZM90.9052 59.0845V52.7215H91.8592V55.5205H95.0452V52.7215H95.9992V59.0845H95.0452V56.3935H91.8592V59.0845H90.9052ZM96.813 59.0845L99.216 52.7215H100.449L102.843 59.0845H101.817L101.349 57.8065H98.307L97.839 59.0845H96.813ZM98.622 56.9515H101.034L99.828 53.6305L98.622 56.9515ZM106.137 59.1565C105.483 59.1565 104.934 59.0185 104.49 58.7425C104.052 58.4665 103.722 58.0855 103.5 57.5995C103.278 57.1135 103.167 56.5525 103.167 55.9165C103.167 55.2805 103.278 54.7165 103.5 54.2245C103.728 53.7325 104.061 53.3485 104.499 53.0725C104.943 52.7905 105.492 52.6495 106.146 52.6495C106.62 52.6495 107.034 52.7275 107.388 52.8835C107.742 53.0335 108.027 53.2495 108.243 53.5315C108.465 53.8075 108.612 54.1375 108.684 54.5215H107.748C107.658 54.2155 107.475 53.9725 107.199 53.7925C106.923 53.6125 106.569 53.5225 106.137 53.5225C105.657 53.5225 105.27 53.6335 104.976 53.8555C104.688 54.0775 104.478 54.3685 104.346 54.7285C104.214 55.0825 104.148 55.4665 104.148 55.8805C104.148 56.3065 104.217 56.7025 104.355 57.0685C104.493 57.4345 104.712 57.7285 105.012 57.9505C105.312 58.1725 105.696 58.2835 106.164 58.2835C106.452 58.2835 106.707 58.2445 106.929 58.1665C107.151 58.0825 107.337 57.9655 107.487 57.8155C107.637 57.6595 107.739 57.4795 107.793 57.2755H108.792C108.714 57.6655 108.555 58.0015 108.315 58.2835C108.075 58.5655 107.772 58.7815 107.406 58.9315C107.04 59.0815 106.617 59.1565 106.137 59.1565ZM109.172 59.1385V58.2115C109.34 58.2115 109.481 58.1785 109.595 58.1125C109.715 58.0405 109.811 57.9445 109.883 57.8245C109.961 57.6985 110.015 57.5575 110.045 57.4015C110.087 57.2215 110.117 57.0355 110.135 56.8435C110.153 56.6515 110.165 56.4595 110.171 56.2675C110.183 56.0755 110.189 55.8955 110.189 55.7275L110.234 52.7215H114.572V59.0845H113.618V53.5945H111.161L111.125 55.4215C111.113 55.8655 111.101 56.2915 111.089 56.6995C111.077 57.1015 111.035 57.4675 110.963 57.7975C110.897 58.1215 110.771 58.3915 110.585 58.6075C110.435 58.7815 110.246 58.9105 110.018 58.9945C109.796 59.0785 109.514 59.1265 109.172 59.1385ZM115.384 59.0845L117.787 52.7215H119.02L121.414 59.0845H120.388L119.92 57.8065H116.878L116.41 59.0845H115.384ZM117.193 56.9515H119.605L118.399 53.6305L117.193 56.9515ZM121.582 59.0845L123.319 55.8445L121.582 52.7215H122.644L124.12 55.5205H125.029V52.7215H125.983V55.5205H126.91L128.395 52.7215H129.439L127.693 55.8445L129.448 59.0845H128.332L126.919 56.3845H125.983V59.0845H125.029V56.3845H124.102L122.68 59.0845H121.582ZM129.731 60.7945V58.2115C129.959 58.2115 130.13 58.1635 130.244 58.0675C130.358 57.9715 130.442 57.8485 130.496 57.6985C130.55 57.5545 130.592 57.3895 130.622 57.2035C130.658 57.0175 130.688 56.8225 130.712 56.6185C130.736 56.4145 130.754 56.2105 130.766 56.0065C130.802 55.4485 130.826 54.8965 130.838 54.3505C130.856 53.8045 130.868 53.2615 130.874 52.7215H135.086V58.2115H135.851V60.7945H134.897V59.0845H130.685V60.7945H129.731ZM131.351 58.2115H134.132V53.5945H131.783L131.711 55.9075C131.705 56.0455 131.696 56.2075 131.684 56.3935C131.678 56.5795 131.663 56.7775 131.639 56.9875C131.615 57.1915 131.579 57.4015 131.531 57.6175C131.489 57.8275 131.429 58.0255 131.351 58.2115ZM136.258 59.0845L138.661 52.7215H139.894L142.288 59.0845H141.262L140.794 57.8065H137.752L137.284 59.0845H136.258ZM138.067 56.9515H140.479L139.273 53.6305L138.067 56.9515ZM143.095 59.0845V52.7215H144.049V57.5455L147.334 52.7215H148.252V59.0845H147.307V54.3055L144.004 59.0845H143.095ZM145.687 52.2355C145.339 52.2355 145.039 52.1815 144.787 52.0735C144.541 51.9655 144.349 51.8065 144.211 51.5965C144.079 51.3865 144.007 51.1285 143.995 50.8225H144.85C144.856 51.0445 144.934 51.2125 145.084 51.3265C145.24 51.4405 145.441 51.4975 145.687 51.4975C145.933 51.4975 146.131 51.4405 146.281 51.3265C146.431 51.2125 146.512 51.0445 146.524 50.8225H147.37C147.364 51.1285 147.292 51.3865 147.154 51.5965C147.016 51.8065 146.824 51.9655 146.578 52.0735C146.332 52.1815 146.035 52.2355 145.687 52.2355ZM152.367 59.1565C151.713 59.1565 151.164 59.0185 150.72 58.7425C150.282 58.4665 149.952 58.0855 149.73 57.5995C149.508 57.1135 149.397 56.5525 149.397 55.9165C149.397 55.2805 149.508 54.7165 149.73 54.2245C149.958 53.7325 150.291 53.3485 150.729 53.0725C151.173 52.7905 151.722 52.6495 152.376 52.6495C152.85 52.6495 153.264 52.7275 153.618 52.8835C153.972 53.0335 154.257 53.2495 154.473 53.5315C154.695 53.8075 154.842 54.1375 154.914 54.5215H153.978C153.888 54.2155 153.705 53.9725 153.429 53.7925C153.153 53.6125 152.799 53.5225 152.367 53.5225C151.887 53.5225 151.5 53.6335 151.206 53.8555C150.918 54.0775 150.708 54.3685 150.576 54.7285C150.444 55.0825 150.378 55.4665 150.378 55.8805C150.378 56.3065 150.447 56.7025 150.585 57.0685C150.723 57.4345 150.942 57.7285 151.242 57.9505C151.542 58.1725 151.926 58.2835 152.394 58.2835C152.682 58.2835 152.937 58.2445 153.159 58.1665C153.381 58.0825 153.567 57.9655 153.717 57.8155C153.867 57.6595 153.969 57.4795 154.023 57.2755H155.022C154.944 57.6655 154.785 58.0015 154.545 58.2835C154.305 58.5655 154.002 58.7815 153.636 58.9315C153.27 59.0815 152.847 59.1565 152.367 59.1565ZM155.912 59.0845L157.352 56.6005C156.938 56.4925 156.599 56.2855 156.335 55.9795C156.077 55.6735 155.948 55.2625 155.948 54.7465C155.948 54.3745 156.005 54.0625 156.119 53.8105C156.239 53.5525 156.404 53.3425 156.614 53.1805C156.824 53.0185 157.076 52.9015 157.37 52.8295C157.664 52.7575 157.985 52.7215 158.333 52.7215H160.736V59.0845H159.782V56.7715H158.297L157.001 59.0845H155.912ZM158.495 55.9165H159.782V53.5945H158.297C157.985 53.5945 157.727 53.6365 157.523 53.7205C157.319 53.7985 157.163 53.9215 157.055 54.0895C156.953 54.2575 156.902 54.4735 156.902 54.7375C156.902 55.0555 156.977 55.3015 157.127 55.4755C157.277 55.6435 157.472 55.7605 157.712 55.8265C157.958 55.8865 158.219 55.9165 158.495 55.9165ZM162.669 59.1745C162.489 59.1745 162.339 59.1175 162.219 59.0035C162.105 58.8895 162.048 58.7395 162.048 58.5535C162.048 58.3675 162.108 58.2175 162.228 58.1035C162.348 57.9835 162.495 57.9235 162.669 57.9235C162.843 57.9235 162.987 57.9835 163.101 58.1035C163.221 58.2175 163.281 58.3675 163.281 58.5535C163.281 58.7395 163.221 58.8895 163.101 59.0035C162.987 59.1175 162.843 59.1745 162.669 59.1745Z" fill="#EAE7DC"/>
</svg>
