<svg width="188" height="72" viewBox="0 0 188 72" fill="none" xmlns="http://www.w3.org/2000/svg">
<path d="M77.951 47.0781V29.6181H92.2253V47.0781H89.1383V32.4087H81.038V47.0781H77.951ZM96.1353 47.0781V29.6181H102.704C104.022 29.6181 105.158 29.8239 106.113 30.2355C107.084 30.6306 107.833 31.2645 108.36 32.137C108.903 33.0096 109.175 34.1539 109.175 35.5698C109.175 36.9198 108.878 38.0476 108.286 38.9531C107.693 39.8587 106.886 40.5419 105.866 41.0029C104.845 41.4474 103.676 41.6697 102.359 41.6697H99.2223V47.0781H96.1353ZM99.2223 38.9037H102.309C103.445 38.9037 104.359 38.6321 105.051 38.0888C105.742 37.5455 106.088 36.6893 106.088 35.5204C106.088 34.4996 105.8 33.7341 105.223 33.2237C104.647 32.6968 103.758 32.4334 102.556 32.4334H99.2223V38.9037ZM119.753 47.2757C117.959 47.2757 116.427 46.897 115.16 46.1397C113.908 45.3823 112.945 44.3286 112.27 42.9786C111.612 41.6285 111.282 40.0892 111.282 38.3604C111.282 36.5988 111.62 35.0512 112.295 33.7176C112.97 32.3675 113.941 31.3138 115.209 30.5565C116.477 29.7827 118.008 29.3958 119.803 29.3958C121.597 29.3958 123.12 29.7745 124.371 30.5318C125.639 31.2891 126.61 32.3428 127.285 33.6929C127.961 35.0265 128.298 36.5659 128.298 38.311C128.298 40.0398 127.961 41.5791 127.285 42.9292C126.627 44.2792 125.656 45.3412 124.371 46.115C123.104 46.8888 121.564 47.2757 119.753 47.2757ZM119.803 44.411C121.054 44.411 122.075 44.1228 122.865 43.5466C123.655 42.9704 124.231 42.2212 124.594 41.2993C124.972 40.3773 125.162 39.3977 125.162 38.3604C125.162 37.5702 125.055 36.8128 124.841 36.0884C124.643 35.364 124.322 34.7137 123.877 34.1374C123.449 33.5612 122.898 33.1084 122.223 32.7791C121.548 32.4334 120.741 32.2605 119.803 32.2605C118.568 32.2605 117.547 32.5486 116.74 33.1249C115.95 33.7011 115.366 34.4502 114.987 35.3722C114.608 36.2942 114.419 37.2903 114.419 38.3604C114.419 39.4141 114.608 40.402 114.987 41.324C115.366 42.2459 115.95 42.9951 116.74 43.5713C117.547 44.1311 118.568 44.411 119.803 44.411ZM131.226 47.0781V29.6181H143.549V32.4334H134.313V37.0269H142.339V39.7928H134.313V44.2628H143.549V47.0781H131.226ZM146.492 47.0781V29.6181H149.579V37.1256H152.098L157.013 29.6181H160.519L154.691 38.1629L160.544 47.0781H156.938L152.246 39.941H149.579V47.0781H146.492ZM166.477 47.0781V32.4334H161.019V29.6181H174.997V32.4334H169.539V47.0781H166.477Z" fill="#EAE7DC"/>
<path d="M77.4967 28.5441V21.1847C78.1553 21.1847 78.6409 21.0365 78.9538 20.7401C79.283 20.4273 79.5218 20.0404 79.6699 19.5794C79.8181 19.1184 79.9334 18.6163 80.0157 18.073C80.098 17.5132 80.1639 16.9452 80.2133 16.3689C80.2791 15.7927 80.3285 15.2247 80.3614 14.6649C80.4438 13.2655 80.5014 11.899 80.5343 10.5654C80.5672 9.21533 80.5919 7.87351 80.6084 6.53993H92.5613V21.1847H94.6604V28.5441H91.5734V24H80.5837V28.5441H77.4967ZM82.3865 21.1847H89.4743V9.35527H83.4978L83.325 15.2823C83.3085 15.6445 83.2838 16.0726 83.2509 16.5665C83.2344 17.044 83.1932 17.5461 83.1274 18.073C83.0615 18.5998 82.971 19.1349 82.8557 19.6782C82.7405 20.205 82.5841 20.7072 82.3865 21.1847ZM95.6259 24L102.318 6.53993H105.998L112.666 24H109.332L108.171 20.7648H100.121L98.9351 24H95.6259ZM101.108 17.9742H107.159L104.146 9.65162L101.108 17.9742ZM122.74 24V17.9248C122.181 17.9742 121.703 18.0153 121.308 18.0483C120.929 18.0812 120.551 18.1059 120.172 18.1224C119.793 18.1388 119.349 18.147 118.838 18.147C117.472 18.147 116.311 17.9577 115.356 17.579C114.401 17.2004 113.669 16.583 113.158 15.7268C112.664 14.8542 112.417 13.6771 112.417 12.1953V6.53993H115.504V11.7508C115.504 12.7057 115.644 13.4466 115.924 13.9734C116.204 14.4838 116.64 14.8378 117.233 15.0354C117.826 15.2165 118.583 15.307 119.505 15.307C119.966 15.307 120.493 15.2905 121.086 15.2576C121.678 15.2247 122.23 15.1671 122.74 15.0847V6.53993H125.827V24H122.74ZM129.723 24V6.53993H132.81V13.9981H140.959V6.53993H144.022V24H140.959V16.8135H132.81V24H129.723ZM147.931 24V6.53993H151.018V13.2572H153.759C154.583 13.2572 155.381 13.3313 156.155 13.4795C156.945 13.6277 157.653 13.8911 158.279 14.2698C158.904 14.632 159.398 15.1506 159.761 15.8256C160.139 16.4842 160.329 17.3403 160.329 18.394C160.329 19.4642 160.139 20.3615 159.761 21.0859C159.398 21.7938 158.888 22.3701 158.229 22.8146C157.587 23.2427 156.846 23.5472 156.007 23.7283C155.167 23.9094 154.286 24 153.364 24H147.931ZM151.018 21.1847H153.29C153.817 21.1847 154.319 21.1517 154.797 21.0859C155.274 21.0036 155.694 20.8718 156.056 20.6907C156.435 20.4932 156.731 20.2215 156.945 19.8758C157.159 19.5136 157.266 19.0526 157.266 18.4928C157.266 17.933 157.159 17.4885 156.945 17.1592C156.748 16.8135 156.46 16.5583 156.081 16.3936C155.719 16.229 155.307 16.122 154.846 16.0726C154.385 16.0232 153.908 15.9985 153.414 15.9985H151.018V21.1847ZM162.699 24V6.53993H165.762V24H162.699ZM169.661 24V6.53993H172.748V18.9126L181.441 6.53993H184.207V24H181.12V11.7755L172.402 24H169.661ZM176.971 5.35452C176.016 5.35452 175.193 5.20634 174.501 4.90999C173.81 4.61364 173.266 4.16911 172.871 3.57641C172.493 2.96724 172.287 2.22636 172.254 1.35377H174.872C174.905 1.91354 175.11 2.34984 175.489 2.66266C175.884 2.95901 176.386 3.10718 176.996 3.10718C177.605 3.10718 178.099 2.95901 178.477 2.66266C178.856 2.34984 179.054 1.91354 179.07 1.35377H181.712C181.68 2.22636 181.466 2.96724 181.07 3.57641C180.692 4.16911 180.148 4.61364 179.44 4.90999C178.749 5.20634 177.926 5.35452 176.971 5.35452Z" fill="#E85A4F"/>
<rect x="8.92188" y="21.957" width="3.92307" height="25.2548" fill="#EAE7DC"/>
<path d="M62.125 9.45312L62.125 13.3762L3.03354 36.1791L3.03354 32.256L62.125 9.45312Z" fill="#EAE7DC"/>
<rect x="52.0781" y="7" width="3.92307" height="37.024" fill="#EAE7DC"/>
<rect x="30" y="28" width="4" height="19" fill="#EAE7DC"/>
<rect x="41" y="28" width="4" height="19" fill="#EAE7DC"/>
<rect x="43" y="28" width="4" height="13" transform="rotate(90 43 28)" fill="#EAE7DC"/>
<rect x="62.125" y="43.2891" width="3.92308" height="58.3557" transform="rotate(90 62.125 43.2891)" fill="#EAE7DC"/>
<path d="M19.218 10.1875L19.2185 14.2107L12.5983 16.9303L12.5978 12.9071L19.218 10.1875Z" fill="#EAE7DC"/>
<path d="M2.54735 18.5234L2.54688 22.5466L9.16706 25.2662L9.16753 21.243L2.54735 18.5234Z" fill="#EAE7DC"/>
<rect x="8.92188" y="7" width="3.92307" height="37.024" fill="#EAE7DC"/>
<path d="M8.29517 13.7891C8.37318 14.0265 8.24284 14.2807 8.00454 14.3559C4.86941 15.3452 1.93581 13.841 0.909382 10.7178C0.831367 10.4804 0.961713 10.2262 1.2 10.151C4.33514 9.16169 7.26874 10.6659 8.29517 13.7891Z" fill="#EAE7DC"/>
<path d="M13.9001 23.8438C13.8221 24.0812 13.9525 24.3354 14.1908 24.4106C17.3259 25.3999 20.2595 23.8957 21.2859 20.7725C21.3639 20.5351 21.2336 20.2809 20.9953 20.2057C17.8602 19.2164 14.9266 20.7206 13.9001 23.8438Z" fill="#EAE7DC"/>
<path d="M3.83 69V61.93H9.5V69H8.44V62.89H4.89V69H3.83ZM10.464 69.06V68.03C10.6507 68.03 10.8073 67.9933 10.934 67.92C11.0673 67.84 11.174 67.7333 11.254 67.6C11.3407 67.46 11.4007 67.3033 11.434 67.13C11.4807 66.93 11.514 66.7233 11.534 66.51C11.554 66.2967 11.5673 66.0833 11.574 65.87C11.5873 65.6567 11.594 65.4567 11.594 65.27L11.644 61.93H16.464V69H15.404V62.9H12.674L12.634 64.93C12.6207 65.4233 12.6073 65.8967 12.594 66.35C12.5807 66.7967 12.534 67.2033 12.454 67.57C12.3807 67.93 12.2407 68.23 12.034 68.47C11.8673 68.6633 11.6573 68.8067 11.404 68.9C11.1573 68.9933 10.844 69.0467 10.464 69.06ZM17.3669 69L20.0369 61.93H21.4069L24.0669 69H22.9269L22.4069 67.58H19.0269L18.5069 69H17.3669ZM19.3769 66.63H22.0569L20.7169 62.94L19.3769 66.63ZM24.9628 69V61.93H26.0228V65.04H29.5628V61.93H30.6228V69H29.5628V66.01H26.0228V69H24.9628ZM32.287 69V61.93H33.347V67.29L36.997 61.93H38.017V69H36.967V63.69L33.297 69H32.287ZM39.6796 69V61.93H42.2296C42.7563 61.93 43.2096 62.0133 43.5896 62.18C43.9763 62.3467 44.2729 62.6067 44.4796 62.96C44.6863 63.3067 44.7896 63.7567 44.7896 64.31C44.7896 64.8433 44.6696 65.29 44.4296 65.65C44.1963 66.01 43.8763 66.2833 43.4696 66.47C43.0629 66.65 42.5996 66.74 42.0796 66.74H40.7396V69H39.6796ZM40.7396 65.78H42.0396C42.5463 65.78 42.9529 65.6633 43.2596 65.43C43.5663 65.19 43.7196 64.8067 43.7196 64.28C43.7196 63.82 43.5929 63.4767 43.3396 63.25C43.0863 63.0167 42.7029 62.9 42.1896 62.9H40.7396V65.78ZM46.3475 69.01V68.01C46.6275 68.01 46.8675 67.99 47.0675 67.95C47.2742 67.9033 47.4575 67.8167 47.6175 67.69C47.7775 67.5633 47.9275 67.3733 48.0675 67.12L45.3175 61.93H46.5575L48.6475 66.06L50.3175 61.93H51.4575L50.0475 65.22C49.9542 65.4467 49.8408 65.7167 49.7075 66.03C49.5742 66.3367 49.4275 66.6533 49.2675 66.98C49.1142 67.3 48.9475 67.5967 48.7675 67.87C48.5942 68.1433 48.4108 68.3567 48.2175 68.51C47.9775 68.71 47.7042 68.8433 47.3975 68.91C47.0975 68.9767 46.7475 69.01 46.3475 69.01ZM52.2675 69V61.93H53.3275V67.29L56.9775 61.93H57.9975V69H56.9475V63.69L53.2775 69H52.2675ZM55.1475 61.39C54.7608 61.39 54.4275 61.33 54.1475 61.21C53.8742 61.09 53.6608 60.9133 53.5075 60.68C53.3608 60.4467 53.2808 60.16 53.2675 59.82H54.2175C54.2242 60.0667 54.3108 60.2533 54.4775 60.38C54.6508 60.5067 54.8742 60.57 55.1475 60.57C55.4208 60.57 55.6408 60.5067 55.8075 60.38C55.9742 60.2533 56.0642 60.0667 56.0775 59.82H57.0175C57.0108 60.16 56.9308 60.4467 56.7775 60.68C56.6242 60.9133 56.4108 61.09 56.1375 61.21C55.8642 61.33 55.5342 61.39 55.1475 61.39ZM60.1501 69.1C59.9501 69.1 59.7834 69.0367 59.6501 68.91C59.5234 68.7833 59.4601 68.6167 59.4601 68.41C59.4601 68.2033 59.5267 68.0367 59.6601 67.91C59.7934 67.7767 59.9567 67.71 60.1501 67.71C60.3434 67.71 60.5034 67.7767 60.6301 67.91C60.7634 68.0367 60.8301 68.2033 60.8301 68.41C60.8301 68.6167 60.7634 68.7833 60.6301 68.91C60.5034 69.0367 60.3434 69.1 60.1501 69.1ZM67.5994 69.08C66.8727 69.08 66.2627 68.9267 65.7694 68.62C65.2827 68.3133 64.916 67.89 64.6694 67.35C64.4227 66.81 64.2994 66.1867 64.2994 65.48C64.2994 64.7733 64.4227 64.1467 64.6694 63.6C64.9227 63.0533 65.2927 62.6267 65.7794 62.32C66.2727 62.0067 66.8827 61.85 67.6094 61.85C68.136 61.85 68.596 61.9367 68.9894 62.11C69.3827 62.2767 69.6994 62.5167 69.9394 62.83C70.186 63.1367 70.3494 63.5033 70.4294 63.93H69.3894C69.2894 63.59 69.086 63.32 68.7794 63.12C68.4727 62.92 68.0794 62.82 67.5994 62.82C67.066 62.82 66.636 62.9433 66.3094 63.19C65.9894 63.4367 65.756 63.76 65.6094 64.16C65.4627 64.5533 65.3894 64.98 65.3894 65.44C65.3894 65.9133 65.466 66.3533 65.6194 66.76C65.7727 67.1667 66.016 67.4933 66.3494 67.74C66.6827 67.9867 67.1094 68.11 67.6294 68.11C67.9494 68.11 68.2327 68.0667 68.4794 67.98C68.726 67.8867 68.9327 67.7567 69.0994 67.59C69.266 67.4167 69.3794 67.2167 69.4394 66.99H70.5494C70.4627 67.4233 70.286 67.7967 70.0194 68.11C69.7527 68.4233 69.416 68.6633 69.0094 68.83C68.6027 68.9967 68.1327 69.08 67.5994 69.08ZM73.2506 69V62.9H71.0106V61.93H76.5406V62.9H74.3106V69H73.2506ZM77.5019 69V61.93H80.0519C80.5785 61.93 81.0319 62.0133 81.4119 62.18C81.7985 62.3467 82.0952 62.6067 82.3019 62.96C82.5085 63.3067 82.6119 63.7567 82.6119 64.31C82.6119 64.8433 82.4919 65.29 82.2519 65.65C82.0185 66.01 81.6985 66.2833 81.2919 66.47C80.8852 66.65 80.4219 66.74 79.9019 66.74H78.5619V69H77.5019ZM78.5619 65.78H79.8619C80.3685 65.78 80.7752 65.6633 81.0819 65.43C81.3885 65.19 81.5419 64.8067 81.5419 64.28C81.5419 63.82 81.4152 63.4767 81.1619 63.25C80.9085 63.0167 80.5252 62.9 80.0119 62.9H78.5619V65.78ZM86.9274 69.08C86.2008 69.08 85.5841 68.9267 85.0774 68.62C84.5774 68.3067 84.1974 67.8767 83.9374 67.33C83.6774 66.7833 83.5474 66.1633 83.5474 65.47C83.5474 64.77 83.6774 64.1467 83.9374 63.6C84.1974 63.0533 84.5808 62.6267 85.0874 62.32C85.5941 62.0067 86.2108 61.85 86.9374 61.85C87.6708 61.85 88.2874 62.0033 88.7874 62.31C89.2874 62.6167 89.6674 63.0433 89.9274 63.59C90.1874 64.1367 90.3174 64.76 90.3174 65.46C90.3174 66.1533 90.1874 66.7733 89.9274 67.32C89.6674 67.8667 89.2841 68.2967 88.7774 68.61C88.2774 68.9233 87.6608 69.08 86.9274 69.08ZM86.9374 68.11C87.4708 68.11 87.9074 67.9867 88.2474 67.74C88.5874 67.4933 88.8374 67.17 88.9974 66.77C89.1574 66.37 89.2374 65.9367 89.2374 65.47C89.2374 65.1167 89.1908 64.78 89.0974 64.46C89.0108 64.14 88.8741 63.8567 88.6874 63.61C88.5008 63.3633 88.2608 63.17 87.9674 63.03C87.6741 62.89 87.3308 62.82 86.9374 62.82C86.4108 62.82 85.9741 62.9433 85.6274 63.19C85.2874 63.4367 85.0341 63.76 84.8674 64.16C84.7008 64.56 84.6174 64.9967 84.6174 65.47C84.6174 65.9367 84.6974 66.37 84.8574 66.77C85.0241 67.17 85.2774 67.4933 85.6174 67.74C85.9641 67.9867 86.4041 68.11 86.9374 68.11ZM91.5839 69V61.93H92.6439V67.29L96.2939 61.93H97.3139V69H96.2639V63.69L92.5939 69H91.5839ZM94.4639 61.39C94.0772 61.39 93.7439 61.33 93.4639 61.21C93.1906 61.09 92.9772 60.9133 92.8239 60.68C92.6772 60.4467 92.5972 60.16 92.5839 59.82H93.5339C93.5406 60.0667 93.6272 60.2533 93.7939 60.38C93.9672 60.5067 94.1906 60.57 94.4639 60.57C94.7372 60.57 94.9572 60.5067 95.1239 60.38C95.2906 60.2533 95.3806 60.0667 95.3939 59.82H96.3339C96.3272 60.16 96.2472 60.4467 96.0939 60.68C95.9406 60.9133 95.7272 61.09 95.4539 61.21C95.1806 61.33 94.8506 61.39 94.4639 61.39ZM99.4665 69.1C99.2665 69.1 99.0998 69.0367 98.9665 68.91C98.8398 68.7833 98.7765 68.6167 98.7765 68.41C98.7765 68.2033 98.8432 68.0367 98.9765 67.91C99.1098 67.7767 99.2732 67.71 99.4665 67.71C99.6598 67.71 99.8198 67.7767 99.9465 67.91C100.08 68.0367 100.146 68.2033 100.146 68.41C100.146 68.6167 100.08 68.7833 99.9465 68.91C99.8198 69.0367 99.6598 69.1 99.4665 69.1ZM104.006 69V61.93H105.066V65.04H108.606V61.93H109.666V69H108.606V66.01H105.066V69H104.006ZM110.57 69L113.24 61.93H114.61L117.27 69H116.13L115.61 67.58H112.23L111.71 69H110.57ZM112.58 66.63H115.26L113.92 62.94L112.58 66.63ZM120.929 69.08C120.203 69.08 119.593 68.9267 119.099 68.62C118.613 68.3133 118.246 67.89 117.999 67.35C117.753 66.81 117.629 66.1867 117.629 65.48C117.629 64.7733 117.753 64.1467 117.999 63.6C118.253 63.0533 118.623 62.6267 119.109 62.32C119.603 62.0067 120.213 61.85 120.939 61.85C121.466 61.85 121.926 61.9367 122.319 62.11C122.713 62.2767 123.029 62.5167 123.269 62.83C123.516 63.1367 123.679 63.5033 123.759 63.93H122.719C122.619 63.59 122.416 63.32 122.109 63.12C121.803 62.92 121.409 62.82 120.929 62.82C120.396 62.82 119.966 62.9433 119.639 63.19C119.319 63.4367 119.086 63.76 118.939 64.16C118.793 64.5533 118.719 64.98 118.719 65.44C118.719 65.9133 118.796 66.3533 118.949 66.76C119.103 67.1667 119.346 67.4933 119.679 67.74C120.013 67.9867 120.439 68.11 120.959 68.11C121.279 68.11 121.563 68.0667 121.809 67.98C122.056 67.8867 122.263 67.7567 122.429 67.59C122.596 67.4167 122.709 67.2167 122.769 66.99H123.879C123.793 67.4233 123.616 67.7967 123.349 68.11C123.083 68.4233 122.746 68.6633 122.339 68.83C121.933 68.9967 121.463 69.08 120.929 69.08ZM124.302 69.06V68.03C124.489 68.03 124.645 67.9933 124.772 67.92C124.905 67.84 125.012 67.7333 125.092 67.6C125.179 67.46 125.239 67.3033 125.272 67.13C125.319 66.93 125.352 66.7233 125.372 66.51C125.392 66.2967 125.405 66.0833 125.412 65.87C125.425 65.6567 125.432 65.4567 125.432 65.27L125.482 61.93H130.302V69H129.242V62.9H126.512L126.472 64.93C126.459 65.4233 126.445 65.8967 126.432 66.35C126.419 66.7967 126.372 67.2033 126.292 67.57C126.219 67.93 126.079 68.23 125.872 68.47C125.705 68.6633 125.495 68.8067 125.242 68.9C124.995 68.9933 124.682 69.0467 124.302 69.06ZM131.205 69L133.875 61.93H135.245L137.905 69H136.765L136.245 67.58H132.865L132.345 69H131.205ZM133.215 66.63H135.895L134.555 62.94L133.215 66.63ZM138.091 69L140.021 65.4L138.091 61.93H139.271L140.911 65.04H141.921V61.93H142.981V65.04H144.011L145.661 61.93H146.821L144.881 65.4L146.831 69H145.591L144.021 66H142.981V69H141.921V66H140.891L139.311 69H138.091ZM147.145 70.9V68.03C147.398 68.03 147.588 67.9767 147.715 67.87C147.842 67.7633 147.935 67.6267 147.995 67.46C148.055 67.3 148.102 67.1167 148.135 66.91C148.175 66.7033 148.208 66.4867 148.235 66.26C148.262 66.0333 148.282 65.8067 148.295 65.58C148.335 64.96 148.362 64.3467 148.375 63.74C148.395 63.1333 148.408 62.53 148.415 61.93H153.095V68.03H153.945V70.9H152.885V69H148.205V70.9H147.145ZM148.945 68.03H152.035V62.9H149.425L149.345 65.47C149.338 65.6233 149.328 65.8033 149.315 66.01C149.308 66.2167 149.292 66.4367 149.265 66.67C149.238 66.8967 149.198 67.13 149.145 67.37C149.098 67.6033 149.032 67.8233 148.945 68.03ZM154.398 69L157.068 61.93H158.438L161.098 69H159.958L159.438 67.58H156.058L155.538 69H154.398ZM156.408 66.63H159.088L157.748 62.94L156.408 66.63ZM161.994 69V61.93H163.054V67.29L166.704 61.93H167.724V69H166.674V63.69L163.004 69H161.994ZM164.874 61.39C164.487 61.39 164.154 61.33 163.874 61.21C163.601 61.09 163.387 60.9133 163.234 60.68C163.087 60.4467 163.007 60.16 162.994 59.82H163.944C163.951 60.0667 164.037 60.2533 164.204 60.38C164.377 60.5067 164.601 60.57 164.874 60.57C165.147 60.57 165.367 60.5067 165.534 60.38C165.701 60.2533 165.791 60.0667 165.804 59.82H166.744C166.737 60.16 166.657 60.4467 166.504 60.68C166.351 60.9133 166.137 61.09 165.864 61.21C165.591 61.33 165.261 61.39 164.874 61.39ZM172.297 69.08C171.57 69.08 170.96 68.9267 170.467 68.62C169.98 68.3133 169.613 67.89 169.367 67.35C169.12 66.81 168.997 66.1867 168.997 65.48C168.997 64.7733 169.12 64.1467 169.367 63.6C169.62 63.0533 169.99 62.6267 170.477 62.32C170.97 62.0067 171.58 61.85 172.307 61.85C172.833 61.85 173.293 61.9367 173.687 62.11C174.08 62.2767 174.397 62.5167 174.637 62.83C174.883 63.1367 175.047 63.5033 175.127 63.93H174.087C173.987 63.59 173.783 63.32 173.477 63.12C173.17 62.92 172.777 62.82 172.297 62.82C171.763 62.82 171.333 62.9433 171.007 63.19C170.687 63.4367 170.453 63.76 170.307 64.16C170.16 64.5533 170.087 64.98 170.087 65.44C170.087 65.9133 170.163 66.3533 170.317 66.76C170.47 67.1667 170.713 67.4933 171.047 67.74C171.38 67.9867 171.807 68.11 172.327 68.11C172.647 68.11 172.93 68.0667 173.177 67.98C173.423 67.8867 173.63 67.7567 173.797 67.59C173.963 67.4167 174.077 67.2167 174.137 66.99H175.247C175.16 67.4233 174.983 67.7967 174.717 68.11C174.45 68.4233 174.113 68.6633 173.707 68.83C173.3 68.9967 172.83 69.08 172.297 69.08ZM176.236 69L177.836 66.24C177.376 66.12 176.999 65.89 176.706 65.55C176.419 65.21 176.276 64.7533 176.276 64.18C176.276 63.7667 176.339 63.42 176.466 63.14C176.599 62.8533 176.782 62.62 177.016 62.44C177.249 62.26 177.529 62.13 177.856 62.05C178.182 61.97 178.539 61.93 178.926 61.93H181.596V69H180.536V66.43H178.886L177.446 69H176.236ZM179.106 65.48H180.536V62.9H178.886C178.539 62.9 178.252 62.9467 178.026 63.04C177.799 63.1267 177.626 63.2633 177.506 63.45C177.392 63.6367 177.336 63.8767 177.336 64.17C177.336 64.5233 177.419 64.7967 177.586 64.99C177.752 65.1767 177.969 65.3067 178.236 65.38C178.509 65.4467 178.799 65.48 179.106 65.48ZM183.744 69.1C183.544 69.1 183.377 69.0367 183.244 68.91C183.117 68.7833 183.054 68.6167 183.054 68.41C183.054 68.2033 183.12 68.0367 183.254 67.91C183.387 67.7767 183.55 67.71 183.744 67.71C183.937 67.71 184.097 67.7767 184.224 67.91C184.357 68.0367 184.424 68.2033 184.424 68.41C184.424 68.6167 184.357 68.7833 184.224 68.91C184.097 69.0367 183.937 69.1 183.744 69.1Z" fill="#EAE7DC"/>
</svg>
