<svg width="188" height="71" viewBox="0 0 188 71" fill="none" xmlns="http://www.w3.org/2000/svg">
<path d="M77.951 47.0781V29.6181H92.2253V47.0781H89.1383V32.4087H81.038V47.0781H77.951ZM96.1353 47.0781V29.6181H102.704C104.022 29.6181 105.158 29.8239 106.113 30.2355C107.084 30.6306 107.833 31.2645 108.36 32.137C108.903 33.0096 109.175 34.1539 109.175 35.5698C109.175 36.9198 108.878 38.0476 108.286 38.9531C107.693 39.8587 106.886 40.5419 105.866 41.0029C104.845 41.4474 103.676 41.6697 102.359 41.6697H99.2223V47.0781H96.1353ZM99.2223 38.9037H102.309C103.445 38.9037 104.359 38.6321 105.051 38.0888C105.742 37.5455 106.088 36.6893 106.088 35.5204C106.088 34.4996 105.8 33.7341 105.223 33.2237C104.647 32.6968 103.758 32.4334 102.556 32.4334H99.2223V38.9037ZM119.753 47.2757C117.959 47.2757 116.427 46.897 115.16 46.1397C113.908 45.3823 112.945 44.3286 112.27 42.9786C111.612 41.6285 111.282 40.0892 111.282 38.3604C111.282 36.5988 111.62 35.0512 112.295 33.7176C112.97 32.3675 113.941 31.3138 115.209 30.5565C116.477 29.7827 118.008 29.3958 119.803 29.3958C121.597 29.3958 123.12 29.7745 124.371 30.5318C125.639 31.2891 126.61 32.3428 127.285 33.6929C127.961 35.0265 128.298 36.5659 128.298 38.311C128.298 40.0398 127.961 41.5791 127.285 42.9292C126.627 44.2792 125.656 45.3412 124.371 46.115C123.104 46.8888 121.564 47.2757 119.753 47.2757ZM119.803 44.411C121.054 44.411 122.075 44.1228 122.865 43.5466C123.655 42.9704 124.231 42.2212 124.594 41.2993C124.972 40.3773 125.162 39.3977 125.162 38.3604C125.162 37.5702 125.055 36.8128 124.841 36.0884C124.643 35.364 124.322 34.7137 123.877 34.1374C123.449 33.5612 122.898 33.1084 122.223 32.7791C121.548 32.4334 120.741 32.2605 119.803 32.2605C118.568 32.2605 117.547 32.5486 116.74 33.1249C115.95 33.7011 115.366 34.4502 114.987 35.3722C114.608 36.2942 114.419 37.2903 114.419 38.3604C114.419 39.4141 114.608 40.402 114.987 41.324C115.366 42.2459 115.95 42.9951 116.74 43.5713C117.547 44.1311 118.568 44.411 119.803 44.411ZM131.226 47.0781V29.6181H143.549V32.4334H134.313V37.0269H142.339V39.7928H134.313V44.2628H143.549V47.0781H131.226ZM146.492 47.0781V29.6181H149.579V37.1256H152.098L157.013 29.6181H160.519L154.691 38.1629L160.544 47.0781H156.938L152.246 39.941H149.579V47.0781H146.492ZM166.477 47.0781V32.4334H161.019V29.6181H174.997V32.4334H169.539V47.0781H166.477Z" fill="#121212"/>
<path d="M77.4967 28.5441V21.1847C78.1553 21.1847 78.6409 21.0365 78.9538 20.7401C79.283 20.4273 79.5218 20.0404 79.6699 19.5794C79.8181 19.1184 79.9334 18.6163 80.0157 18.073C80.098 17.5132 80.1639 16.9452 80.2133 16.3689C80.2791 15.7927 80.3285 15.2247 80.3614 14.6649C80.4438 13.2655 80.5014 11.899 80.5343 10.5654C80.5672 9.21533 80.5919 7.87351 80.6084 6.53993H92.5613V21.1847H94.6604V28.5441H91.5734V24H80.5837V28.5441H77.4967ZM82.3865 21.1847H89.4743V9.35527H83.4978L83.325 15.2823C83.3085 15.6445 83.2838 16.0726 83.2509 16.5665C83.2344 17.044 83.1932 17.5461 83.1274 18.073C83.0615 18.5998 82.971 19.1349 82.8557 19.6782C82.7405 20.205 82.5841 20.7072 82.3865 21.1847ZM95.6259 24L102.318 6.53993H105.998L112.666 24H109.332L108.171 20.7648H100.121L98.9351 24H95.6259ZM101.108 17.9742H107.159L104.146 9.65162L101.108 17.9742ZM122.74 24V17.9248C122.181 17.9742 121.703 18.0153 121.308 18.0483C120.929 18.0812 120.551 18.1059 120.172 18.1224C119.793 18.1388 119.349 18.147 118.838 18.147C117.472 18.147 116.311 17.9577 115.356 17.579C114.401 17.2004 113.669 16.583 113.158 15.7268C112.664 14.8542 112.417 13.6771 112.417 12.1953V6.53993H115.504V11.7508C115.504 12.7057 115.644 13.4466 115.924 13.9734C116.204 14.4838 116.64 14.8378 117.233 15.0354C117.826 15.2165 118.583 15.307 119.505 15.307C119.966 15.307 120.493 15.2905 121.086 15.2576C121.678 15.2247 122.23 15.1671 122.74 15.0847V6.53993H125.827V24H122.74ZM129.723 24V6.53993H132.81V13.9981H140.959V6.53993H144.022V24H140.959V16.8135H132.81V24H129.723ZM147.931 24V6.53993H151.018V13.2572H153.759C154.583 13.2572 155.381 13.3313 156.155 13.4795C156.945 13.6277 157.653 13.8911 158.279 14.2698C158.904 14.632 159.398 15.1506 159.761 15.8256C160.139 16.4842 160.329 17.3403 160.329 18.394C160.329 19.4642 160.139 20.3615 159.761 21.0859C159.398 21.7938 158.888 22.3701 158.229 22.8146C157.587 23.2427 156.846 23.5472 156.007 23.7283C155.167 23.9094 154.286 24 153.364 24H147.931ZM151.018 21.1847H153.29C153.817 21.1847 154.319 21.1517 154.797 21.0859C155.274 21.0036 155.694 20.8718 156.056 20.6907C156.435 20.4932 156.731 20.2215 156.945 19.8758C157.159 19.5136 157.266 19.0526 157.266 18.4928C157.266 17.933 157.159 17.4885 156.945 17.1592C156.748 16.8135 156.46 16.5583 156.081 16.3936C155.719 16.229 155.307 16.122 154.846 16.0726C154.385 16.0232 153.908 15.9985 153.414 15.9985H151.018V21.1847ZM162.699 24V6.53993H165.762V24H162.699ZM169.661 24V6.53993H172.748V18.9126L181.441 6.53993H184.207V24H181.12V11.7755L172.402 24H169.661ZM176.971 5.35452C176.016 5.35452 175.193 5.20634 174.501 4.90999C173.81 4.61364 173.266 4.16911 172.871 3.57641C172.493 2.96724 172.287 2.22636 172.254 1.35377H174.872C174.905 1.91354 175.11 2.34984 175.489 2.66266C175.884 2.95901 176.386 3.10718 176.996 3.10718C177.605 3.10718 178.099 2.95901 178.477 2.66266C178.856 2.34984 179.054 1.91354 179.07 1.35377H181.712C181.68 2.22636 181.466 2.96724 181.07 3.57641C180.692 4.16911 180.148 4.61364 179.44 4.90999C178.749 5.20634 177.926 5.35452 176.971 5.35452Z" fill="#E85A4F"/>
<rect x="8.92188" y="21.957" width="3.92307" height="25.2548" fill="#121212"/>
<path d="M62.125 9.45312L62.125 13.3762L3.03354 36.1791L3.03354 32.256L62.125 9.45312Z" fill="#121212"/>
<rect x="52.0781" y="7" width="3.92307" height="37.024" fill="#121212"/>
<rect x="30" y="28" width="4" height="19" fill="#121212"/>
<rect x="41" y="28" width="4" height="19" fill="#121212"/>
<rect x="43" y="28" width="4" height="13" transform="rotate(90 43 28)" fill="#121212"/>
<rect x="62.125" y="43.2891" width="3.92308" height="58.3557" transform="rotate(90 62.125 43.2891)" fill="#121212"/>
<path d="M19.218 10.1875L19.2185 14.2107L12.5983 16.9303L12.5978 12.9071L19.218 10.1875Z" fill="#121212"/>
<path d="M2.54735 18.5234L2.54688 22.5466L9.16706 25.2662L9.16753 21.243L2.54735 18.5234Z" fill="#121212"/>
<rect x="8.92188" y="7" width="3.92307" height="37.024" fill="#121212"/>
<path d="M8.29517 13.7891C8.37318 14.0265 8.24284 14.2807 8.00454 14.3559C4.86941 15.3452 1.93581 13.841 0.909382 10.7178C0.831367 10.4804 0.961713 10.2262 1.2 10.151C4.33514 9.16169 7.26874 10.6659 8.29517 13.7891Z" fill="#121212"/>
<path d="M13.9001 23.8438C13.8221 24.0812 13.9525 24.3354 14.1908 24.4106C17.3259 25.3999 20.2595 23.8957 21.2859 20.7725C21.3639 20.5351 21.2336 20.2809 20.9953 20.2057C17.8602 19.2164 14.9266 20.7206 13.9001 23.8438Z" fill="#121212"/>
<path d="M7.44692 67.0946C6.57961 67.0946 5.85029 66.9172 5.25894 66.5624C4.66759 66.1997 4.22211 65.699 3.9225 65.0604C3.62288 64.4217 3.47308 63.6806 3.47308 62.8369C3.47308 61.9933 3.62683 61.2482 3.93433 60.6016C4.24183 59.9551 4.69125 59.4505 5.28259 59.0878C5.87394 58.7172 6.59538 58.5319 7.44692 58.5319C8.07769 58.5319 8.63355 58.6384 9.11451 58.8513C9.59548 59.0641 9.98576 59.3677 10.2854 59.7619C10.5929 60.1483 10.79 60.6253 10.8767 61.193H9.44567C9.33528 60.7909 9.11057 60.4755 8.77153 60.2468C8.4325 60.0182 7.99096 59.9039 7.44692 59.9039C6.85557 59.9039 6.37856 60.0418 6.01586 60.3178C5.65317 60.5938 5.38904 60.9486 5.22346 61.3822C5.06577 61.8159 4.98692 62.2811 4.98692 62.7778C4.98692 63.2903 5.06971 63.7713 5.23529 64.2207C5.40875 64.6701 5.68077 65.0328 6.05134 65.3088C6.42192 65.5847 6.89894 65.7227 7.4824 65.7227C7.84509 65.7227 8.16048 65.6714 8.42855 65.5689C8.70451 65.4664 8.93317 65.3206 9.11451 65.1313C9.30374 64.9342 9.43384 64.7056 9.5048 64.4454H11.0068C10.9122 65.0052 10.6993 65.4822 10.3682 65.8764C10.0449 66.2707 9.63096 66.5742 9.12634 66.7871C8.62961 66.9921 8.0698 67.0946 7.44692 67.0946ZM14.6854 67V59.9866H12.0716V58.6384H18.7656V59.9866H16.1519V67H14.6854ZM20.4088 67V58.6384H23.5548C24.1856 58.6384 24.7296 58.7369 25.1869 58.934C25.6521 59.1233 26.0109 59.4268 26.2632 59.8447C26.5234 60.2626 26.6535 60.8106 26.6535 61.4887C26.6535 62.1352 26.5115 62.6753 26.2277 63.1089C25.9438 63.5426 25.5575 63.8698 25.0686 64.0906C24.5798 64.3035 24.02 64.4099 23.3892 64.4099H21.8872V67H20.4088ZM21.8872 63.0853H23.3656C23.9096 63.0853 24.3472 62.9552 24.6784 62.695C25.0095 62.4348 25.1751 62.0248 25.1751 61.465C25.1751 60.9762 25.0371 60.6095 24.7612 60.3651C24.4852 60.1128 24.0594 59.9866 23.4838 59.9866H21.8872V63.0853ZM32.3108 67.0946C31.4514 67.0946 30.7181 66.9133 30.111 66.5506C29.5118 66.1879 29.0505 65.6833 28.7272 65.0367C28.4118 64.3902 28.2542 63.653 28.2542 62.8251C28.2542 61.9814 28.4158 61.2403 28.7391 60.6016C29.0623 59.9551 29.5275 59.4505 30.1346 59.0878C30.7417 58.7172 31.475 58.5319 32.3344 58.5319C33.1939 58.5319 33.9232 58.7133 34.5224 59.076C35.1295 59.4387 35.5947 59.9433 35.918 60.5898C36.2413 61.2285 36.4029 61.9657 36.4029 62.8014C36.4029 63.6293 36.2413 64.3665 35.918 65.0131C35.6026 65.6596 35.1374 66.1682 34.5224 66.5388C33.9153 66.9093 33.1781 67.0946 32.3108 67.0946ZM32.3344 65.7227C32.9337 65.7227 33.4225 65.5847 33.801 65.3088C34.1794 65.0328 34.4554 64.674 34.6289 64.2325C34.8102 63.791 34.9009 63.3218 34.9009 62.8251C34.9009 62.4466 34.8496 62.0839 34.7471 61.737C34.6525 61.3901 34.4988 61.0787 34.2859 60.8027C34.0809 60.5267 33.8167 60.3099 33.4935 60.1522C33.1702 59.9866 32.7839 59.9039 32.3344 59.9039C31.7431 59.9039 31.2542 60.0418 30.8679 60.3178C30.4894 60.5938 30.2095 60.9525 30.0282 61.394C29.8468 61.8356 29.7562 62.3126 29.7562 62.8251C29.7562 63.3297 29.8468 63.8028 30.0282 64.2443C30.2095 64.6859 30.4894 65.0446 30.8679 65.3206C31.2542 65.5887 31.7431 65.7227 32.3344 65.7227ZM38.3964 67V58.6384H39.8747V64.5637L44.0378 58.6384H45.3624V67H43.8841V61.1457L39.7092 67H38.3964ZM49.621 67V59.9866H47.0072V58.6384H53.7012V59.9866H51.0875V67H49.621ZM55.3444 67V58.6384H61.2461V59.9866H56.8228V62.1864H60.6665V63.5111H56.8228V65.6517H61.2461V67H55.3444ZM62.4425 67.0591V65.6399C62.6948 65.6399 62.8959 65.5926 63.0457 65.498C63.2034 65.3955 63.3256 65.2575 63.4123 65.084C63.5069 64.9027 63.574 64.7016 63.6134 64.4809C63.6607 64.2443 63.6922 64.0038 63.708 63.7594C63.7317 63.5071 63.7474 63.2588 63.7553 63.0143C63.7711 62.7699 63.779 62.5491 63.779 62.352L63.8263 58.6384H69.6333V67H68.1668V59.9866H65.2337L65.1864 62.1983C65.1785 62.7896 65.1627 63.3534 65.1391 63.8895C65.1233 64.4178 65.0681 64.8948 64.9735 65.3206C64.8789 65.7463 64.7015 66.1012 64.4413 66.385C64.2284 66.6215 63.9643 66.7911 63.6489 66.8936C63.3414 66.9882 62.9393 67.0434 62.4425 67.0591ZM72.0843 67V58.6384H73.5627V61.8553H75.2303C75.6561 61.8553 76.0582 61.8908 76.4366 61.9617C76.8151 62.0327 77.1502 62.1589 77.4419 62.3402C77.7336 62.5215 77.9623 62.7699 78.1279 63.0853C78.2935 63.4007 78.3762 63.8067 78.3762 64.3035C78.3841 64.8238 78.2935 65.2614 78.1042 65.6163C77.9229 65.9632 77.6745 66.2391 77.3591 66.4441C77.0437 66.6491 76.6811 66.795 76.2711 66.8817C75.8689 66.9606 75.4471 67 75.0056 67H72.0843ZM73.5627 65.6517H75.0056C75.2579 65.6517 75.4984 65.636 75.727 65.6044C75.9557 65.5729 76.1567 65.5138 76.3302 65.427C76.5115 65.3324 76.6495 65.2023 76.7441 65.0367C76.8466 64.8633 76.8979 64.6386 76.8979 64.3626C76.8979 64.0945 76.8506 63.8816 76.756 63.7239C76.6613 63.5663 76.5312 63.448 76.3657 63.3691C76.2001 63.2903 76.0109 63.239 75.798 63.2154C75.5851 63.1838 75.3604 63.1681 75.1238 63.1681H73.5627V65.6517ZM80.4027 67V58.6384H81.8811V62.2101H85.784V58.6384H87.2505V67H85.784V63.5584H81.8811V67H80.4027ZM88.8271 67L92.0322 58.6384H93.7944L96.9876 67H95.391L94.8351 65.4507H90.9796L90.4119 67H88.8271ZM91.4527 64.1142H94.3502L92.9074 60.1286L91.4527 64.1142ZM98.2205 67L100.219 63.8067C99.6516 63.6412 99.2021 63.3534 98.871 62.9434C98.5398 62.5334 98.3743 61.9933 98.3743 61.3231C98.3743 60.8185 98.4531 60.3966 98.6108 60.0576C98.7764 59.7107 99.005 59.4347 99.2968 59.2297C99.5885 59.0168 99.9315 58.867 100.326 58.7803C100.728 58.6857 101.158 58.6384 101.615 58.6384H104.832V67H103.353V64.0551H101.674L99.9354 67H98.2205ZM101.733 62.7423H103.353V59.9866H101.52C101.165 59.9866 100.862 60.0339 100.61 60.1286C100.357 60.2232 100.164 60.369 100.03 60.5662C99.9039 60.7633 99.8408 61.0195 99.8408 61.3349C99.8408 61.7134 99.9315 62.0051 100.113 62.2101C100.294 62.4072 100.527 62.5452 100.811 62.624C101.102 62.7029 101.41 62.7423 101.733 62.7423ZM111.18 67V58.6384H112.659V62.2338H113.865L116.219 58.6384H117.898L115.107 62.7305L117.91 67H116.183L113.936 63.582H112.659V67H111.18ZM122.782 67.0946C121.923 67.0946 121.189 66.9133 120.582 66.5506C119.983 66.1879 119.522 65.6833 119.198 65.0367C118.883 64.3902 118.725 63.653 118.725 62.8251C118.725 61.9814 118.887 61.2403 119.21 60.6016C119.534 59.9551 119.999 59.4505 120.606 59.0878C121.213 58.7172 121.946 58.5319 122.806 58.5319C123.665 58.5319 124.394 58.7133 124.994 59.076C125.601 59.4387 126.066 59.9433 126.389 60.5898C126.713 61.2285 126.874 61.9657 126.874 62.8014C126.874 63.6293 126.713 64.3665 126.389 65.0131C126.074 65.6596 125.609 66.1682 124.994 66.5388C124.387 66.9093 123.649 67.0946 122.782 67.0946ZM122.806 65.7227C123.405 65.7227 123.894 65.5847 124.272 65.3088C124.651 65.0328 124.927 64.674 125.1 64.2325C125.281 63.791 125.372 63.3218 125.372 62.8251C125.372 62.4466 125.321 62.0839 125.218 61.737C125.124 61.3901 124.97 61.0787 124.757 60.8027C124.552 60.5267 124.288 60.3099 123.965 60.1522C123.641 59.9866 123.255 59.9039 122.806 59.9039C122.214 59.9039 121.726 60.0418 121.339 60.3178C120.961 60.5938 120.681 60.9525 120.499 61.394C120.318 61.8356 120.227 62.3126 120.227 62.8251C120.227 63.3297 120.318 63.8028 120.499 64.2443C120.681 64.6859 120.961 65.0446 121.339 65.3206C121.726 65.5887 122.214 65.7227 122.806 65.7227ZM128.868 67V58.6384H130.878L133.22 62.8606L135.55 58.6384H137.489V67H136.023V60.4715L133.504 65.0367H132.889L130.346 60.4715V67H128.868ZM139.946 67V58.6384H146.782V67H145.304V59.9748H141.425V67H139.946ZM148.359 67L151.564 58.6384H153.326L156.52 67H154.923L154.367 65.4507H150.511L149.944 67H148.359ZM150.985 64.1142H153.882L152.439 60.1286L150.985 64.1142ZM158.095 67V58.6384H159.574V62.2101H163.477V58.6384H164.943V67H163.477V63.5584H159.574V67H158.095ZM167.407 67V58.6384H168.885V64.5637L173.048 58.6384H174.373V67H172.894V61.1457L168.72 67H167.407ZM176.491 67L178.489 63.8067C177.922 63.6412 177.472 63.3534 177.141 62.9434C176.81 62.5334 176.644 61.9933 176.644 61.3231C176.644 60.8185 176.723 60.3966 176.881 60.0576C177.047 59.7107 177.275 59.4347 177.567 59.2297C177.859 59.0168 178.202 58.867 178.596 58.7803C178.998 58.6857 179.428 58.6384 179.885 58.6384H183.102V67H181.624V64.0551H179.944L178.206 67H176.491ZM180.003 62.7423H181.624V59.9866H179.79C179.436 59.9866 179.132 60.0339 178.88 60.1286C178.627 60.2232 178.434 60.369 178.3 60.5662C178.174 60.7633 178.111 61.0195 178.111 61.3349C178.111 61.7134 178.202 62.0051 178.383 62.2101C178.564 62.4072 178.797 62.5452 179.081 62.624C179.372 62.7029 179.68 62.7423 180.003 62.7423Z" fill="#121212"/>
</svg>
