<svg width="39" height="46" viewBox="0 0 39 46" fill="none" xmlns="http://www.w3.org/2000/svg">
<rect x="5.52338" y="9.2601" width="2.42883" height="15.6356" fill="#121212"/>
<path d="M38.4631 1.51876L38.4631 3.94759L1.87875 18.0652L1.87875 15.6363L38.4631 1.51876Z" fill="#121212"/>
<rect x="32.2432" y="1.90735e-06" width="2.42883" height="22.9221" fill="#121212"/>
<rect x="18.5732" y="13.0014" width="2.47645" height="11.7632" fill="#121212"/>
<rect x="25.3828" y="13.0014" width="2.47645" height="11.7632" fill="#121212"/>
<rect x="26.6211" y="13.0014" width="2.47645" height="8.04848" transform="rotate(90 26.6211 13.0014)" fill="#121212"/>
<rect x="38.4631" y="22.467" width="2.42883" height="36.1288" transform="rotate(90 38.4631 22.467)" fill="#121212"/>
<path d="M11.8992 1.97342L11.8995 4.46423L7.80089 6.14797L7.8006 3.65717L11.8992 1.97342Z" fill="#121212"/>
<path d="M1.57854 7.13432L1.57825 9.62512L5.67689 11.3089L5.67718 8.81806L1.57854 7.13432Z" fill="#121212"/>
<rect x="5.5235" y="1.90735e-06" width="2.42883" height="22.9221" fill="#121212"/>
<path d="M5.13577 4.20322C5.18407 4.35019 5.10337 4.50757 4.95584 4.55413C3.01484 5.16665 1.19861 4.23538 0.563133 2.30176C0.514833 2.15479 0.595531 1.99741 0.743061 1.95085C2.68407 1.33833 4.5003 2.26961 5.13577 4.20322Z" fill="#121212"/>
<path d="M8.60471 10.4282C8.55641 10.5752 8.63711 10.7326 8.78464 10.7791C10.7256 11.3916 12.5419 10.4604 13.1773 8.52675C13.2256 8.37979 13.1449 8.2224 12.9974 8.17585C11.0564 7.56333 9.24018 8.4946 8.60471 10.4282Z" fill="#121212"/>
<path d="M0.688607 42.4019V36.2393H5.72677V42.4019H4.6372V37.2243H1.77817V42.4019H0.688607ZM7.10684 42.4019V36.2393H9.42544C9.89032 36.2393 10.2913 36.312 10.6283 36.4572C10.9712 36.5967 11.2356 36.8204 11.4215 37.1284C11.6133 37.4364 11.7092 37.8403 11.7092 38.34C11.7092 38.8165 11.6046 39.2146 11.3954 39.5342C11.1862 39.8538 10.9014 40.0949 10.5412 40.2576C10.1809 40.4145 9.76829 40.493 9.30341 40.493H8.19641V42.4019H7.10684ZM8.19641 39.5167H9.28598C9.68694 39.5167 10.0094 39.4209 10.2535 39.2291C10.4976 39.0373 10.6196 38.7352 10.6196 38.3226C10.6196 37.9623 10.5179 37.6921 10.3145 37.5119C10.1111 37.326 9.79735 37.233 9.37314 37.233H8.19641V39.5167ZM15.4428 42.4716C14.8094 42.4716 14.269 42.338 13.8216 42.0707C13.3799 41.8034 13.04 41.4315 12.8017 40.955C12.5693 40.4785 12.4531 39.9351 12.4531 39.325C12.4531 38.7032 12.5722 38.157 12.8105 37.6863C13.0487 37.2098 13.3916 36.8379 13.839 36.5705C14.2865 36.2974 14.8269 36.1609 15.4603 36.1609C16.0937 36.1609 16.6312 36.2945 17.0728 36.5618C17.5203 36.8291 17.8631 37.201 18.1014 37.6775C18.3396 38.1482 18.4588 38.6916 18.4588 39.3075C18.4588 39.9177 18.3396 40.461 18.1014 40.9375C17.869 41.414 17.5261 41.7888 17.0728 42.062C16.6254 42.3351 16.0821 42.4716 15.4428 42.4716ZM15.4603 41.4605C15.9019 41.4605 16.2622 41.3588 16.5411 41.1554C16.8201 40.9521 17.0234 40.6877 17.1513 40.3622C17.2849 40.0368 17.3518 39.6911 17.3518 39.325C17.3518 39.046 17.314 38.7787 17.2385 38.5231C17.1687 38.2674 17.0554 38.0378 16.8985 37.8344C16.7474 37.6311 16.5528 37.4713 16.3145 37.355C16.0763 37.233 15.7915 37.172 15.4603 37.172C15.0245 37.172 14.6642 37.2737 14.3794 37.4771C14.1005 37.6805 13.8942 37.9449 13.7606 38.2703C13.6269 38.5957 13.5601 38.9473 13.5601 39.325C13.5601 39.6969 13.6269 40.0455 13.7606 40.371C13.8942 40.6964 14.1005 40.9608 14.3794 41.1642C14.6642 41.3617 15.0245 41.4605 15.4603 41.4605ZM19.4922 42.4019V36.2393H23.8417V37.233H20.5817V38.8543H23.4146V39.8305H20.5817V41.4082H23.8417V42.4019H19.4922ZM24.8804 42.4019V36.2393H25.97V38.8891H26.8591L28.5937 36.2393H29.8314L27.7743 39.2552L29.8401 42.4019H28.5675L26.9114 39.8828H25.97V42.4019H24.8804ZM31.9341 42.4019V37.233H30.0077V36.2393H34.9413V37.233H33.0149V42.4019H31.9341Z" fill="#121212"/>
<path d="M0.527099 35.8603V33.2627C0.75954 33.2627 0.930965 33.2104 1.04137 33.1058C1.1576 32.9954 1.24186 32.8589 1.29415 32.6961C1.34645 32.5334 1.38713 32.3562 1.41619 32.1644C1.44524 31.9669 1.46849 31.7664 1.48592 31.563C1.50916 31.3596 1.5266 31.1591 1.53822 30.9616C1.56727 30.4676 1.58761 29.9853 1.59923 29.5146C1.61086 29.0381 1.61957 28.5645 1.62538 28.0938H5.84419V33.2627H6.58509V35.8603H5.49553V34.2564H1.61667V35.8603H0.527099ZM2.25297 33.2627H4.75462V29.0875H2.64522L2.5842 31.1795C2.57839 31.3073 2.56968 31.4584 2.55805 31.6327C2.55224 31.8012 2.53771 31.9785 2.51447 32.1644C2.49123 32.3504 2.45927 32.5393 2.41859 32.731C2.37791 32.917 2.32271 33.0942 2.25297 33.2627ZM6.92586 34.2564L9.28804 28.0938H10.5868L12.9403 34.2564H11.7635L11.3539 33.1145H8.51227L8.09387 34.2564H6.92586ZM8.86093 32.1296H10.9965L9.93306 29.1921L8.86093 32.1296ZM16.496 34.2564V32.1121C16.2984 32.1296 16.1299 32.1441 15.9904 32.1557C15.8568 32.1673 15.7231 32.1761 15.5895 32.1819C15.4558 32.1877 15.2989 32.1906 15.1188 32.1906C14.6365 32.1906 14.2268 32.1238 13.8898 31.9901C13.5527 31.8565 13.2941 31.6385 13.114 31.3364C12.9397 31.0284 12.8525 30.6129 12.8525 30.0899V28.0938H13.9421V29.933C13.9421 30.27 13.9915 30.5315 14.0902 30.7175C14.189 30.8976 14.343 31.0226 14.5522 31.0923C14.7614 31.1562 15.0287 31.1882 15.3541 31.1882C15.5168 31.1882 15.7028 31.1824 15.912 31.1708C16.1212 31.1591 16.3159 31.1388 16.496 31.1097V28.0938H17.5856V34.2564H16.496ZM18.9605 34.2564V28.0938H20.05V30.7262H22.9265V28.0938H24.0073V34.2564H22.9265V31.7199H20.05V34.2564H18.9605ZM25.3872 34.2564V28.0938H26.4768V30.4647H27.4443C27.7349 30.4647 28.0167 30.4909 28.2898 30.5432C28.5688 30.5955 28.8186 30.6884 29.0394 30.8221C29.2603 30.9499 29.4346 31.133 29.5624 31.3712C29.6961 31.6037 29.7629 31.9058 29.7629 32.2778C29.7629 32.6555 29.6961 32.9722 29.5624 33.2279C29.4346 33.4777 29.2545 33.6811 29.022 33.838C28.7954 33.9891 28.5339 34.0966 28.2375 34.1605C27.9412 34.2244 27.6303 34.2564 27.3049 34.2564H25.3872ZM26.4768 33.2627H27.2787C27.4647 33.2627 27.6419 33.2511 27.8104 33.2279C27.9789 33.1988 28.1271 33.1523 28.255 33.0884C28.3886 33.0187 28.4932 32.9228 28.5688 32.8007C28.6443 32.6729 28.6821 32.5102 28.6821 32.3126C28.6821 32.115 28.6443 31.9581 28.5688 31.8419C28.499 31.7199 28.3973 31.6298 28.2637 31.5717C28.1358 31.5136 27.9906 31.4758 27.8278 31.4584C27.6651 31.441 27.4966 31.4322 27.3223 31.4322H26.4768V33.2627ZM30.5997 34.2564V28.0938H31.6806V34.2564H30.5997ZM33.0568 34.2564V28.0938H34.1463V32.4608L37.2145 28.0938H38.1908V34.2564H37.1012V29.9417L34.0243 34.2564H33.0568ZM35.6368 27.6754C35.2998 27.6754 35.0093 27.6231 34.7652 27.5185C34.5211 27.4139 34.3294 27.257 34.1899 27.0478C34.0562 26.8328 33.9836 26.5713 33.972 26.2633H34.8959C34.9076 26.4609 34.9802 26.6149 35.1139 26.7253C35.2533 26.8299 35.4306 26.8822 35.6456 26.8822C35.8606 26.8822 36.0349 26.8299 36.1686 26.7253C36.3022 26.6149 36.3719 26.4609 36.3778 26.2633H37.3104C37.2988 26.5713 37.2233 26.8328 37.0838 27.0478C36.9501 27.257 36.7584 27.4139 36.5085 27.5185C36.2644 27.6231 35.9739 27.6754 35.6368 27.6754Z" fill="#E85A4F"/>
</svg>
