<svg width="121" height="46" viewBox="0 0 121 46" fill="none" xmlns="http://www.w3.org/2000/svg">
<path d="M50.4111 29.9248V18.6332H59.6424V29.9248H57.646V20.438H52.4075V29.9248H50.4111ZM62.1711 29.9248V18.6332H66.4194C67.2712 18.6332 68.0059 18.7663 68.6234 19.0325C69.2516 19.2881 69.7361 19.698 70.0768 20.2623C70.4281 20.8266 70.6038 21.5666 70.6038 22.4823C70.6038 23.3554 70.4122 24.0847 70.0289 24.6703C69.6456 25.2559 69.1238 25.6978 68.4637 25.9959C67.8036 26.2834 67.0476 26.4271 66.1958 26.4271H64.1675V29.9248H62.1711ZM64.1675 24.6384H66.1639C66.8985 24.6384 67.4895 24.4627 67.9367 24.1113C68.3838 23.76 68.6074 23.2063 68.6074 22.4503C68.6074 21.7902 68.4211 21.2951 68.0485 20.965C67.6758 20.6243 67.1008 20.4539 66.3236 20.4539H64.1675V24.6384ZM77.4449 30.0526C76.2844 30.0526 75.2942 29.8077 74.4743 29.3179C73.6651 28.8281 73.0422 28.1467 72.6057 27.2736C72.1798 26.4005 71.9669 25.405 71.9669 24.287C71.9669 23.1477 72.1851 22.1469 72.6217 21.2844C73.0582 20.4114 73.6864 19.7299 74.5063 19.2401C75.3261 18.7397 76.3163 18.4895 77.4769 18.4895C78.6375 18.4895 79.6223 18.7344 80.4315 19.2242C81.2514 19.7139 81.8796 20.3954 82.3161 21.2685C82.7527 22.1309 82.9709 23.1264 82.9709 24.2551C82.9709 25.373 82.7527 26.3686 82.3161 27.2417C81.8902 28.1147 81.262 28.8015 80.4315 29.3019C79.6117 29.8024 78.6162 30.0526 77.4449 30.0526ZM77.4769 28.1999C78.2861 28.1999 78.9462 28.0136 79.4573 27.6409C79.9684 27.2683 80.341 26.7838 80.5753 26.1876C80.8202 25.5913 80.9426 24.9578 80.9426 24.287C80.9426 23.7759 80.8734 23.2861 80.735 22.8177C80.6072 22.3492 80.3996 21.9286 80.1121 21.5559C79.8353 21.1833 79.4786 20.8905 79.0421 20.6775C78.6055 20.4539 78.0838 20.3421 77.4769 20.3421C76.6783 20.3421 76.0182 20.5285 75.4965 20.9011C74.9854 21.2738 74.6074 21.7582 74.3625 22.3545C74.1176 22.9508 73.9952 23.5949 73.9952 24.287C73.9952 24.9684 74.1176 25.6073 74.3625 26.2035C74.6074 26.7998 74.9854 27.2842 75.4965 27.6569C76.0182 28.0189 76.6783 28.1999 77.4769 28.1999ZM84.8644 29.9248V18.6332H92.834V20.4539H86.8608V23.4246H92.0514V25.2133H86.8608V28.1041H92.834V29.9248H84.8644ZM94.7371 29.9248V18.6332H96.7335V23.4884H98.3626L101.541 18.6332H103.809L100.04 24.1592L103.825 29.9248H101.493L98.4584 25.3092H96.7335V29.9248H94.7371ZM107.661 29.9248V20.4539H104.132V18.6332H113.171V20.4539H109.642V29.9248H107.661Z" fill="#121212"/>
<path d="M50.1177 17.9387V13.1793C50.5436 13.1793 50.8577 13.0835 51.06 12.8918C51.2729 12.6895 51.4273 12.4393 51.5232 12.1412C51.619 11.843 51.6935 11.5183 51.7468 11.1669C51.8 10.8049 51.8426 10.4376 51.8745 10.0649C51.9171 9.69227 51.9491 9.32494 51.9704 8.96293C52.0236 8.0579 52.0609 7.17417 52.0821 6.31173C52.1034 5.43864 52.1194 4.57088 52.1301 3.70844H59.8601V13.1793H61.2176V17.9387H59.2212V15H52.1141V17.9387H50.1177ZM53.28 13.1793H57.8637V5.52914H53.9987L53.8869 9.3622C53.8762 9.59645 53.8603 9.87328 53.839 10.1927C53.8283 10.5015 53.8017 10.8262 53.7591 11.1669C53.7165 11.5077 53.658 11.8537 53.5834 12.2051C53.5089 12.5458 53.4077 12.8705 53.28 13.1793ZM61.842 15L66.1701 3.70844H68.5498L72.862 15H70.7059L69.9553 12.9078H64.7487L63.9821 15H61.842ZM65.3876 11.1031H69.3005L67.352 5.7208L65.3876 11.1031ZM79.3771 15V11.0711C79.0151 11.1031 78.7063 11.1297 78.4508 11.151C78.2059 11.1723 77.961 11.1882 77.7161 11.1989C77.4712 11.2095 77.1838 11.2149 76.8537 11.2149C75.97 11.2149 75.2193 11.0924 74.6018 10.8475C73.9842 10.6026 73.5104 10.2033 73.1803 9.64968C72.8609 9.08537 72.7012 8.32408 72.7012 7.36582V3.70844H74.6976V7.07834C74.6976 7.69589 74.7881 8.17502 74.9691 8.51574C75.1501 8.84581 75.4323 9.07473 75.8156 9.20249C76.1989 9.31962 76.6886 9.37818 77.2849 9.37818C77.583 9.37818 77.9237 9.36753 78.3071 9.34623C78.6904 9.32494 79.047 9.28767 79.3771 9.23444V3.70844H81.3735V15H79.3771ZM83.8927 15V3.70844H85.8891V8.53171H91.1595V3.70844H93.14V15H91.1595V10.3524H85.8891V15H83.8927ZM95.6683 15V3.70844H97.6646V8.05258H99.4374C99.9698 8.05258 100.486 8.10049 100.987 8.19632C101.498 8.29214 101.956 8.4625 102.36 8.70739C102.765 8.94163 103.084 9.27703 103.318 9.71357C103.563 10.1395 103.686 10.6931 103.686 11.3746C103.686 12.0666 103.563 12.6469 103.318 13.1154C103.084 13.5732 102.754 13.9459 102.328 14.2334C101.913 14.5102 101.434 14.7072 100.891 14.8243C100.348 14.9414 99.7781 15 99.1819 15H95.6683ZM97.6646 13.1793H99.134C99.4747 13.1793 99.7994 13.158 100.108 13.1154C100.417 13.0622 100.688 12.977 100.923 12.8599C101.168 12.7321 101.359 12.5564 101.498 12.3328C101.636 12.0986 101.705 11.8005 101.705 11.4384C101.705 11.0764 101.636 10.789 101.498 10.576C101.37 10.3524 101.184 10.1874 100.939 10.0809C100.704 9.97443 100.438 9.90522 100.14 9.87328C99.842 9.84134 99.5333 9.82537 99.2138 9.82537H97.6646V13.1793ZM105.219 15V3.70844H107.199V15H105.219ZM109.721 15V3.70844H111.717V11.71L117.339 3.70844H119.128V15H117.132V7.09431L111.494 15H109.721ZM114.448 2.94183C113.831 2.94183 113.298 2.846 112.851 2.65435C112.404 2.46269 112.053 2.17521 111.797 1.79191C111.552 1.39795 111.419 0.918822 111.398 0.354509H113.091C113.112 0.716521 113.245 0.998677 113.49 1.20098C113.746 1.39263 114.07 1.48846 114.464 1.48846C114.858 1.48846 115.178 1.39263 115.423 1.20098C115.668 0.998677 115.795 0.716521 115.806 0.354509H117.515C117.494 0.918822 117.355 1.39795 117.1 1.79191C116.855 2.17521 116.503 2.46269 116.045 2.65435C115.598 2.846 115.066 2.94183 114.448 2.94183Z" fill="#E85A4F"/>
<rect x="5.76953" y="14.1998" width="2.53708" height="16.3325" fill="#121212"/>
<path d="M40.1767 6.11341L40.1767 8.65049L1.96181 23.3973L1.96181 20.8602L40.1767 6.11341Z" fill="#121212"/>
<rect x="33.6797" y="4.52695" width="2.53708" height="23.9437" fill="#121212"/>
<rect x="19.4012" y="18.1078" width="2.58683" height="12.2874" fill="#121212"/>
<rect x="26.5146" y="18.1078" width="2.58683" height="12.2874" fill="#121212"/>
<rect x="27.8084" y="18.1078" width="2.58683" height="8.4072" transform="rotate(90 27.8084 18.1078)" fill="#121212"/>
<rect x="40.1767" y="27.9954" width="2.53708" height="37.7391" transform="rotate(90 40.1767 27.9954)" fill="#121212"/>
<path d="M12.4287 6.58833L12.429 9.19015L8.14768 10.9489L8.14737 8.34712L12.4287 6.58833Z" fill="#121212"/>
<path d="M1.64786 11.9792L1.64755 14.5811L5.92888 16.3399L5.92918 13.738L1.64786 11.9792Z" fill="#121212"/>
<rect x="5.76962" y="4.52695" width="2.53708" height="23.9437" fill="#121212"/>
<path d="M5.36464 8.91751C5.41509 9.07103 5.3308 9.23543 5.17669 9.28406C3.14917 9.92388 1.25199 8.9511 0.588196 6.9313C0.537743 6.77779 0.622039 6.61339 0.776143 6.56476C2.80366 5.92493 4.70084 6.89772 5.36464 8.91751Z" fill="#121212"/>
<path d="M8.98906 15.42C8.93861 15.5735 9.0229 15.7379 9.17701 15.7865C11.2045 16.4263 13.1017 15.4535 13.7655 13.4337C13.816 13.2802 13.7317 13.1158 13.5776 13.0672C11.55 12.4274 9.65286 13.4002 8.98906 15.42Z" fill="#121212"/>
<path d="M4.81629 44.2768C4.25539 44.2768 3.78373 44.1621 3.4013 43.9326C3.01888 43.6981 2.73078 43.3743 2.53702 42.9613C2.34325 42.5482 2.24637 42.0689 2.24637 41.5233C2.24637 40.9777 2.3458 40.4959 2.54467 40.0778C2.74353 39.6596 3.03417 39.3333 3.4166 39.0987C3.79903 38.8591 4.26559 38.7393 4.81629 38.7393C5.22421 38.7393 5.58369 38.8081 5.89473 38.9458C6.20577 39.0834 6.45818 39.2798 6.65194 39.5347C6.8508 39.7846 6.97828 40.0931 7.03437 40.4602H6.10889C6.03751 40.2001 5.89218 39.9962 5.67292 39.8483C5.45367 39.7004 5.16812 39.6265 4.81629 39.6265C4.43386 39.6265 4.12537 39.7157 3.89081 39.8942C3.65626 40.0727 3.48544 40.3021 3.37836 40.5826C3.27638 40.863 3.22539 41.1639 3.22539 41.4851C3.22539 41.8165 3.27893 42.1276 3.38601 42.4182C3.49819 42.7089 3.6741 42.9434 3.91376 43.1219C4.15341 43.3003 4.4619 43.3896 4.83923 43.3896C5.07379 43.3896 5.27775 43.3564 5.45112 43.2902C5.62958 43.2239 5.77745 43.1295 5.89473 43.0072C6.01711 42.8797 6.10124 42.7318 6.14713 42.5635H7.1185C7.05731 42.9256 6.91964 43.2341 6.70548 43.489C6.49642 43.744 6.22872 43.9403 5.90238 44.078C5.58114 44.2105 5.21911 44.2768 4.81629 44.2768ZM9.49744 44.2156V39.68H7.80711V38.8081H12.1362V39.68H10.4459V44.2156H9.49744ZM13.1989 44.2156V38.8081H15.2334C15.6413 38.8081 15.9931 38.8718 16.2889 38.9993C16.5897 39.1217 16.8217 39.318 16.9849 39.5883C17.1532 39.8585 17.2373 40.2129 17.2373 40.6514C17.2373 41.0695 17.1455 41.4188 16.962 41.6993C16.7784 41.9797 16.5285 42.1913 16.2124 42.3341C15.8963 42.4718 15.5342 42.5406 15.1263 42.5406H14.1549V44.2156H13.1989ZM14.1549 41.684H15.111C15.4628 41.684 15.7458 41.5998 15.96 41.4316C16.1742 41.2633 16.2812 40.9981 16.2812 40.6361C16.2812 40.32 16.192 40.0829 16.0135 39.9248C15.8351 39.7616 15.5597 39.68 15.1875 39.68H14.1549V41.684ZM20.8959 44.2768C20.3401 44.2768 19.8659 44.1595 19.4733 43.925C19.0858 43.6904 18.7875 43.3641 18.5784 42.946C18.3745 42.5278 18.2725 42.0511 18.2725 41.5157C18.2725 40.9701 18.377 40.4908 18.5861 40.0778C18.7951 39.6596 19.096 39.3333 19.4886 39.0987C19.8812 38.8591 20.3554 38.7393 20.9112 38.7393C21.467 38.7393 21.9387 38.8565 22.3262 39.0911C22.7188 39.3256 23.0197 39.652 23.2287 40.0701C23.4378 40.4831 23.5423 40.9599 23.5423 41.5004C23.5423 42.0358 23.4378 42.5125 23.2287 42.9307C23.0248 43.3488 22.7239 43.6777 22.3262 43.9173C21.9336 44.157 21.4568 44.2768 20.8959 44.2768ZM20.9112 43.3896C21.2988 43.3896 21.6149 43.3003 21.8597 43.1219C22.1044 42.9434 22.2829 42.7114 22.3951 42.4259C22.5123 42.1403 22.571 41.8369 22.571 41.5157C22.571 41.2709 22.5378 41.0364 22.4715 40.812C22.4104 40.5877 22.3109 40.3862 22.1732 40.2078C22.0407 40.0293 21.8699 39.8891 21.6608 39.7871C21.4517 39.68 21.2019 39.6265 20.9112 39.6265C20.5288 39.6265 20.2127 39.7157 19.9628 39.8942C19.7181 40.0727 19.537 40.3047 19.4198 40.5902C19.3025 40.8758 19.2438 41.1842 19.2438 41.5157C19.2438 41.842 19.3025 42.148 19.4198 42.4335C19.537 42.7191 19.7181 42.9511 19.9628 43.1295C20.2127 43.3029 20.5288 43.3896 20.9112 43.3896ZM24.8315 44.2156V38.8081H25.7876V42.64L28.4799 38.8081H29.3365V44.2156H28.3805V40.4296L25.6805 44.2156H24.8315ZM32.0906 44.2156V39.68H30.4002V38.8081H34.7293V39.68H33.039V44.2156H32.0906ZM35.792 44.2156V38.8081H39.6086V39.68H36.748V41.1027H39.2338V41.9593H36.748V43.3437H39.6086V44.2156H35.792ZM40.3824 44.2539V43.336C40.5455 43.336 40.6756 43.3054 40.7724 43.2443C40.8744 43.178 40.9535 43.0887 41.0095 42.9766C41.0707 42.8593 41.1141 42.7293 41.1396 42.5865C41.1702 42.4335 41.1906 42.278 41.2008 42.1199C41.2161 41.9568 41.2263 41.7961 41.2314 41.6381C41.2416 41.48 41.2466 41.3372 41.2466 41.2097L41.2772 38.8081H45.0327V44.2156H44.0843V39.68H42.1874L42.1568 41.1103C42.1517 41.4927 42.1415 41.8573 42.1262 42.2041C42.116 42.5457 42.0803 42.8542 42.0192 43.1295C41.958 43.4049 41.8432 43.6343 41.675 43.8179C41.5373 43.9709 41.3665 44.0805 41.1625 44.1468C40.9637 44.208 40.7036 44.2437 40.3824 44.2539ZM46.6178 44.2156V38.8081H47.5739V40.8885H48.6523C48.9276 40.8885 49.1877 40.9115 49.4325 40.9573C49.6772 41.0032 49.8939 41.0848 50.0826 41.2021C50.2712 41.3194 50.4191 41.48 50.5262 41.684C50.6333 41.8879 50.6868 42.1505 50.6868 42.4718C50.6919 42.8083 50.6333 43.0913 50.5109 43.3207C50.3936 43.5451 50.233 43.7236 50.029 43.8561C49.8251 43.9887 49.5905 44.0831 49.3254 44.1391C49.0653 44.1901 48.7925 44.2156 48.507 44.2156H46.6178ZM47.5739 43.3437H48.507C48.6701 43.3437 48.8257 43.3335 48.9735 43.3131C49.1214 43.2927 49.2514 43.2545 49.3636 43.1984C49.4809 43.1372 49.5701 43.053 49.6313 42.946C49.6976 42.8338 49.7307 42.6885 49.7307 42.51C49.7307 42.3366 49.7002 42.199 49.639 42.097C49.5778 41.995 49.4936 41.9185 49.3866 41.8675C49.2795 41.8165 49.1571 41.7834 49.0194 41.7681C48.8818 41.7477 48.7364 41.7375 48.5835 41.7375H47.5739V43.3437ZM51.9973 44.2156V38.8081H52.9534V41.118H55.4774V38.8081H56.4259V44.2156H55.4774V41.9899H52.9534V44.2156H51.9973ZM57.4455 44.2156L59.5182 38.8081H60.6578L62.723 44.2156H61.6904L61.3309 43.2137H58.8375L58.4704 44.2156H57.4455ZM59.1434 42.3494H61.0173L60.0842 39.7718L59.1434 42.3494ZM63.5203 44.2156L64.8129 42.1505C64.4457 42.0434 64.1551 41.8573 63.9409 41.5922C63.7268 41.327 63.6197 40.9777 63.6197 40.5443C63.6197 40.218 63.6707 39.9452 63.7727 39.7259C63.8797 39.5016 64.0276 39.3231 64.2163 39.1905C64.4049 39.0529 64.6267 38.956 64.8817 38.8999C65.1418 38.8387 65.4196 38.8081 65.7154 38.8081H67.7958V44.2156H66.8397V42.3111H65.7536L64.6293 44.2156H63.5203ZM65.7919 41.4621H66.8397V39.68H65.6542C65.4247 39.68 65.2284 39.7106 65.0653 39.7718C64.9021 39.833 64.7772 39.9273 64.6905 40.0548C64.6089 40.1823 64.5681 40.348 64.5681 40.552C64.5681 40.7967 64.6267 40.9854 64.744 41.118C64.8613 41.2454 65.0117 41.3347 65.1953 41.3857C65.384 41.4367 65.5828 41.4621 65.7919 41.4621ZM71.9015 44.2156V38.8081H72.8576V41.1333H73.6377L75.1598 38.8081H76.2459L74.4408 41.4545L76.2535 44.2156H75.1369L73.6836 42.0052H72.8576V44.2156H71.9015ZM79.4044 44.2768C78.8486 44.2768 78.3744 44.1595 77.9818 43.925C77.5942 43.6904 77.2959 43.3641 77.0869 42.946C76.8829 42.5278 76.7809 42.0511 76.7809 41.5157C76.7809 40.9701 76.8855 40.4908 77.0945 40.0778C77.3036 39.6596 77.6044 39.3333 77.9971 39.0987C78.3897 38.8591 78.8639 38.7393 79.4197 38.7393C79.9755 38.7393 80.4471 38.8565 80.8347 39.0911C81.2273 39.3256 81.5281 39.652 81.7372 40.0701C81.9463 40.4831 82.0508 40.9599 82.0508 41.5004C82.0508 42.0358 81.9463 42.5125 81.7372 42.9307C81.5332 43.3488 81.2324 43.6777 80.8347 43.9173C80.442 44.157 79.9653 44.2768 79.4044 44.2768ZM79.4197 43.3896C79.8072 43.3896 80.1234 43.3003 80.3681 43.1219C80.6129 42.9434 80.7913 42.7114 80.9035 42.4259C81.0208 42.1403 81.0794 41.8369 81.0794 41.5157C81.0794 41.2709 81.0463 41.0364 80.98 40.812C80.9188 40.5877 80.8194 40.3862 80.6817 40.2078C80.5491 40.0293 80.3783 39.8891 80.1692 39.7871C79.9602 39.68 79.7103 39.6265 79.4197 39.6265C79.0373 39.6265 78.7211 39.7157 78.4713 39.8942C78.2265 40.0727 78.0455 40.3047 77.9282 40.5902C77.8109 40.8758 77.7523 41.1842 77.7523 41.5157C77.7523 41.842 77.8109 42.148 77.9282 42.4335C78.0455 42.7191 78.2265 42.9511 78.4713 43.1295C78.7211 43.3029 79.0373 43.3896 79.4197 43.3896ZM83.34 44.2156V38.8081H84.6402L86.1547 41.5386L87.6614 38.8081H88.9158V44.2156H87.9674V39.9936L86.3382 42.946H85.9405L84.2961 39.9936V44.2156H83.34ZM90.5045 44.2156V38.8081H94.9254V44.2156H93.9693V39.6724H91.4606V44.2156H90.5045ZM95.9452 44.2156L98.0179 38.8081H99.1576L101.223 44.2156H100.19L99.8306 43.2137H97.3372L96.9701 44.2156H95.9452ZM97.6431 42.3494H99.517L98.5839 39.7718L97.6431 42.3494ZM102.242 44.2156V38.8081H103.198V41.118H105.722V38.8081H106.67V44.2156H105.722V41.9899H103.198V44.2156H102.242ZM108.264 44.2156V38.8081H109.22V42.64L111.912 38.8081H112.769V44.2156H111.812V40.4296L109.113 44.2156H108.264ZM114.138 44.2156L115.431 42.1505C115.064 42.0434 114.773 41.8573 114.559 41.5922C114.345 41.327 114.238 40.9777 114.238 40.5443C114.238 40.218 114.289 39.9452 114.391 39.7259C114.498 39.5016 114.646 39.3231 114.834 39.1905C115.023 39.0529 115.245 38.956 115.5 38.8999C115.76 38.8387 116.038 38.8081 116.333 38.8081H118.414V44.2156H117.458V42.3111H116.372L115.247 44.2156H114.138ZM116.41 41.4621H117.458V39.68H116.272C116.043 39.68 115.846 39.7106 115.683 39.7718C115.52 39.833 115.395 39.9273 115.308 40.0548C115.227 40.1823 115.186 40.348 115.186 40.552C115.186 40.7967 115.245 40.9854 115.362 41.118C115.479 41.2454 115.63 41.3347 115.813 41.3857C116.002 41.4367 116.201 41.4621 116.41 41.4621Z" fill="#121212"/>
</svg>
