<svg width="130" height="53" viewBox="0 0 130 53" fill="none" xmlns="http://www.w3.org/2000/svg">
    <path d="M54.1031 33.0181V20.8996H64.0104V33.0181H61.8678V22.8365H56.2457V33.0181H54.1031ZM66.7243 33.0181V20.8996H71.2837C72.1979 20.8996 72.9863 21.0425 73.6491 21.3281C74.3233 21.6024 74.8432 22.0423 75.2089 22.648C75.586 23.2536 75.7745 24.0478 75.7745 25.0305C75.7745 25.9675 75.5689 26.7503 75.1575 27.3788C74.7461 28.0073 74.1862 28.4815 73.4777 28.8015C72.7692 29.11 71.9579 29.2643 71.0437 29.2643H68.8669V33.0181H66.7243ZM68.8669 27.3445H71.0094C71.7979 27.3445 72.4321 27.156 72.9121 26.7789C73.392 26.4018 73.632 25.8076 73.632 24.9962C73.632 24.2878 73.432 23.7564 73.032 23.4022C72.6321 23.0365 72.015 22.8537 71.1808 22.8537H68.8669V27.3445ZM83.1166 33.1552C81.8711 33.1552 80.8084 32.8924 79.9285 32.3667C79.06 31.8411 78.3915 31.1097 77.923 30.1727C77.4659 29.2357 77.2374 28.1673 77.2374 26.9674C77.2374 25.7447 77.4716 24.6706 77.9402 23.745C78.4087 22.808 79.0829 22.0766 79.9627 21.551C80.8426 21.0139 81.9054 20.7454 83.1509 20.7454C84.3965 20.7454 85.4535 21.0082 86.3219 21.5338C87.2018 22.0595 87.876 22.7908 88.3445 23.7278C88.813 24.6534 89.0473 25.7219 89.0473 26.9331C89.0473 28.133 88.813 29.2014 88.3445 30.1384C87.8874 31.0755 87.2132 31.8125 86.3219 32.3496C85.442 32.8867 84.3736 33.1552 83.1166 33.1552ZM83.1509 31.1669C84.0194 31.1669 84.7278 30.9669 85.2763 30.567C85.8249 30.167 86.2248 29.6471 86.4762 29.0072C86.739 28.3672 86.8704 27.6873 86.8704 26.9674C86.8704 26.4189 86.7962 25.8933 86.6476 25.3905C86.5105 24.8877 86.2876 24.4363 85.9791 24.0364C85.682 23.6364 85.2992 23.3222 84.8307 23.0936C84.3622 22.8537 83.8023 22.7337 83.1509 22.7337C82.2939 22.7337 81.5854 22.9337 81.0255 23.3336C80.477 23.7335 80.0713 24.2535 79.8085 24.8934C79.5457 25.5333 79.4142 26.2247 79.4142 26.9674C79.4142 27.6988 79.5457 28.3844 79.8085 29.0243C80.0713 29.6642 80.477 30.1841 81.0255 30.5841C81.5854 30.9726 82.2939 31.1669 83.1509 31.1669ZM91.0794 33.0181V20.8996H99.6326V22.8537H93.222V26.0418H98.7927V27.9616H93.222V31.064H99.6326V33.0181H91.0794ZM101.675 33.0181V20.8996H103.818V26.1104H105.566L108.977 20.8996H111.411L107.366 26.8303L111.428 33.0181H108.926L105.669 28.0644H103.818V33.0181H101.675ZM115.546 33.0181V22.8537H111.758V20.8996H121.459V22.8537H117.671V33.0181H115.546Z" fill="#EAE7DC"/>
    <path d="M53.7879 20.1539V15.046C54.245 15.046 54.5821 14.9431 54.7992 14.7374C55.0278 14.5203 55.1935 14.2518 55.2963 13.9318C55.3991 13.6119 55.4791 13.2633 55.5363 12.8862C55.5934 12.4977 55.6391 12.1035 55.6734 11.7035C55.7191 11.3036 55.7534 10.9094 55.7762 10.5208C55.8334 9.54953 55.8734 8.60108 55.8962 7.67549C55.9191 6.73846 55.9362 5.80716 55.9476 4.88156H64.2437V15.046H65.7007V20.1539H63.5581V17H55.9305V20.1539H53.7879ZM57.1818 15.046H62.1011V6.83559H57.9531L57.8331 10.9494C57.8217 11.2007 57.8045 11.4979 57.7817 11.8407C57.7703 12.1721 57.7417 12.5206 57.696 12.8862C57.6503 13.2519 57.5874 13.6233 57.5074 14.0004C57.4275 14.3661 57.3189 14.7146 57.1818 15.046ZM66.3708 17L71.0159 4.88156H73.5698L78.1978 17H75.8838L75.0782 14.7546H69.4904L68.6676 17H66.3708ZM70.176 12.8177H74.3754L72.2843 7.04128L70.176 12.8177ZM85.19 17V12.7834C84.8015 12.8177 84.4701 12.8462 84.1958 12.8691C83.933 12.892 83.6702 12.9091 83.4074 12.9205C83.1445 12.932 82.836 12.9377 82.4818 12.9377C81.5333 12.9377 80.7277 12.8063 80.0649 12.5434C79.4022 12.2806 78.8937 11.8521 78.5394 11.2579C78.1966 10.6522 78.0252 9.83521 78.0252 8.80677V4.88156H80.1678V8.49824C80.1678 9.16101 80.2649 9.67523 80.4592 10.0409C80.6534 10.3951 80.9563 10.6408 81.3676 10.7779C81.779 10.9036 82.3046 10.9665 82.9446 10.9665C83.2645 10.9665 83.6302 10.9551 84.0416 10.9322C84.4529 10.9094 84.8358 10.8694 85.19 10.8122V4.88156H87.3326V17H85.19ZM90.0362 17V4.88156H92.1788V10.058H97.8352V4.88156H99.9607V17H97.8352V12.0121H92.1788V17H90.0362ZM102.674 17V4.88156H104.817V9.54382H106.719C107.291 9.54382 107.845 9.59524 108.382 9.69808C108.93 9.80093 109.422 9.98376 109.856 10.2466C110.29 10.498 110.633 10.8579 110.884 11.3264C111.147 11.7835 111.279 12.3777 111.279 13.1091C111.279 13.8518 111.147 14.4746 110.884 14.9774C110.633 15.4688 110.279 15.8687 109.822 16.1772C109.376 16.4744 108.862 16.6858 108.279 16.8115C107.696 16.9372 107.085 17 106.445 17H102.674ZM104.817 15.046H106.394C106.759 15.046 107.108 15.0231 107.439 14.9774C107.771 14.9203 108.062 14.8289 108.313 14.7032C108.576 14.566 108.782 14.3775 108.93 14.1375C109.079 13.8861 109.153 13.5662 109.153 13.1776C109.153 12.7891 109.079 12.4806 108.93 12.252C108.793 12.0121 108.593 11.835 108.331 11.7207C108.079 11.6064 107.793 11.5321 107.474 11.4979C107.154 11.4636 106.822 11.4464 106.479 11.4464H104.817V15.046ZM112.924 17V4.88156H115.05V17H112.924ZM117.756 17V4.88156H119.898V13.469L125.932 4.88156H127.852V17H125.709V8.51538L119.658 17H117.756ZM122.83 4.05881C122.167 4.05881 121.595 3.95597 121.115 3.75028C120.636 3.54459 120.258 3.23606 119.984 2.82468C119.721 2.40188 119.579 1.88766 119.556 1.28202H121.373C121.395 1.67055 121.538 1.97337 121.801 2.19048C122.075 2.39617 122.424 2.49901 122.847 2.49901C123.269 2.49901 123.612 2.39617 123.875 2.19048C124.138 1.97337 124.275 1.67055 124.286 1.28202H126.121C126.098 1.88766 125.949 2.40188 125.675 2.82468C125.412 3.23606 125.035 3.54459 124.544 3.75028C124.064 3.95597 123.492 4.05881 122.83 4.05881Z" fill="#E85A4F"/>
    <rect x="6.19238" y="15.2397" width="2.72287" height="17.5285" fill="#EAE7DC"/>
    <path d="M43.1182 6.56104L43.1182 9.28391L2.1048 25.1106L2.1048 22.3877L43.1182 6.56104Z" fill="#EAE7DC"/>
    <rect x="36.1455" y="4.85889" width="2.72287" height="25.6971" fill="#EAE7DC"/>
    <rect x="20.8221" y="19.4346" width="2.77626" height="13.1873" fill="#EAE7DC"/>
    <rect x="28.4571" y="19.4346" width="2.77626" height="13.1873" fill="#EAE7DC"/>
    <rect x="29.8448" y="19.4346" width="2.77626" height="9.02285" transform="rotate(90 29.8448 19.4346)" fill="#EAE7DC"/>
    <rect x="43.1182" y="30.0459" width="2.72287" height="40.5027" transform="rotate(90 43.1182 30.0459)" fill="#EAE7DC"/>
    <path d="M13.3385 7.0708L13.3389 9.86315L8.74402 11.7507L8.7437 8.95839L13.3385 7.0708Z" fill="#EAE7DC"/>
    <path d="M1.76711 12.8569L1.76678 15.6493L6.36163 17.5369L6.36196 14.7445L1.76711 12.8569Z" fill="#EAE7DC"/>
    <rect x="6.1925" y="4.85889" width="2.72287" height="25.6971" fill="#EAE7DC"/>
    <path d="M5.75751 9.57076C5.81166 9.73552 5.72119 9.91196 5.5558 9.96415C3.37981 10.6508 1.3437 9.60681 0.631293 7.43911C0.577145 7.27435 0.667614 7.09791 0.833004 7.04572C3.009 6.35904 5.04511 7.40306 5.75751 9.57076Z" fill="#EAE7DC"/>
    <path d="M9.64794 16.5493C9.5938 16.714 9.68426 16.8905 9.84965 16.9427C12.0256 17.6293 14.0618 16.5853 14.7742 14.4176C14.8283 14.2529 14.7378 14.0764 14.5725 14.0242C12.3965 13.3376 10.3603 14.3816 9.64794 16.5493Z" fill="#EAE7DC"/>
    <path d="M0.581 51V46.051H4.55V51H3.808V46.723H1.323V51H0.581ZM5.22479 51.042V50.321C5.35546 50.321 5.46512 50.2953 5.55379 50.244C5.64712 50.188 5.72179 50.1133 5.77779 50.02C5.83846 49.922 5.88046 49.8123 5.90379 49.691C5.93646 49.551 5.95979 49.4063 5.97379 49.257C5.98779 49.1077 5.99712 48.9583 6.00179 48.809C6.01112 48.6597 6.01579 48.5197 6.01579 48.389L6.05079 46.051H9.42479V51H8.68279V46.73H6.77179L6.74379 48.151C6.73446 48.4963 6.72512 48.8277 6.71579 49.145C6.70646 49.4577 6.67379 49.7423 6.61779 49.999C6.56646 50.251 6.46846 50.461 6.32379 50.629C6.20712 50.7643 6.06012 50.8647 5.88279 50.93C5.71012 50.9953 5.49079 51.0327 5.22479 51.042ZM10.0568 51L11.9258 46.051H12.8848L14.7468 51H13.9488L13.5848 50.006H11.2188L10.8548 51H10.0568ZM11.4638 49.341H13.3398L12.4018 46.758L11.4638 49.341ZM15.374 51V46.051H16.116V48.228H18.594V46.051H19.336V51H18.594V48.907H16.116V51H15.374ZM20.5009 51V46.051H21.2429V49.803L23.7979 46.051H24.5119V51H23.7769V47.283L21.2079 51H20.5009ZM25.6757 51V46.051H27.4607C27.8294 46.051 28.1467 46.1093 28.4127 46.226C28.6834 46.3427 28.8911 46.5247 29.0357 46.772C29.1804 47.0147 29.2527 47.3297 29.2527 47.717C29.2527 48.0903 29.1687 48.403 29.0007 48.655C28.8374 48.907 28.6134 49.0983 28.3287 49.229C28.0441 49.355 27.7197 49.418 27.3557 49.418H26.4177V51H25.6757ZM26.4177 48.746H27.3277C27.6824 48.746 27.9671 48.6643 28.1817 48.501C28.3964 48.333 28.5037 48.0647 28.5037 47.696C28.5037 47.374 28.4151 47.1337 28.2377 46.975C28.0604 46.8117 27.7921 46.73 27.4327 46.73H26.4177V48.746ZM30.3433 51.007V50.307C30.5393 50.307 30.7073 50.293 30.8473 50.265C30.9919 50.2323 31.1203 50.1717 31.2323 50.083C31.3443 49.9943 31.4493 49.8613 31.5473 49.684L29.6223 46.051H30.4903L31.9533 48.942L33.1223 46.051H33.9203L32.9333 48.354C32.8679 48.5127 32.7886 48.7017 32.6953 48.921C32.6019 49.1357 32.4993 49.3573 32.3873 49.586C32.2799 49.81 32.1633 50.0177 32.0373 50.209C31.9159 50.4003 31.7876 50.5497 31.6523 50.657C31.4843 50.797 31.2929 50.8903 31.0783 50.937C30.8683 50.9837 30.6233 51.007 30.3433 51.007ZM34.4873 51V46.051H35.2293V49.803L37.7843 46.051H38.4983V51H37.7632V47.283L35.1943 51H34.4873ZM36.5033 45.673C36.2326 45.673 35.9993 45.631 35.8033 45.547C35.6119 45.463 35.4626 45.3393 35.3553 45.176C35.2526 45.0127 35.1966 44.812 35.1873 44.574H35.8523C35.8569 44.7467 35.9176 44.8773 36.0343 44.966C36.1556 45.0547 36.3119 45.099 36.5033 45.099C36.6946 45.099 36.8486 45.0547 36.9653 44.966C37.0819 44.8773 37.1449 44.7467 37.1543 44.574H37.8123C37.8076 44.812 37.7516 45.0127 37.6443 45.176C37.5369 45.3393 37.3876 45.463 37.1963 45.547C37.0049 45.631 36.7739 45.673 36.5033 45.673ZM40.0051 51.07C39.8651 51.07 39.7484 51.0257 39.6551 50.937C39.5664 50.8483 39.5221 50.7317 39.5221 50.587C39.5221 50.4423 39.5687 50.3257 39.6621 50.237C39.7554 50.1437 39.8697 50.097 40.0051 50.097C40.1404 50.097 40.2524 50.1437 40.3411 50.237C40.4344 50.3257 40.4811 50.4423 40.4811 50.587C40.4811 50.7317 40.4344 50.8483 40.3411 50.937C40.2524 51.0257 40.1404 51.07 40.0051 51.07ZM45.2196 51.056C44.7109 51.056 44.2839 50.9487 43.9386 50.734C43.5979 50.5193 43.3412 50.223 43.1686 49.845C42.9959 49.467 42.9096 49.0307 42.9096 48.536C42.9096 48.0413 42.9959 47.6027 43.1686 47.22C43.3459 46.8373 43.6049 46.5387 43.9456 46.324C44.2909 46.1047 44.7179 45.995 45.2266 45.995C45.5952 45.995 45.9172 46.0557 46.1926 46.177C46.4679 46.2937 46.6896 46.4617 46.8576 46.681C47.0302 46.8957 47.1446 47.1523 47.2006 47.451H46.4726C46.4026 47.213 46.2602 47.024 46.0456 46.884C45.8309 46.744 45.5556 46.674 45.2196 46.674C44.8462 46.674 44.5452 46.7603 44.3166 46.933C44.0926 47.1057 43.9292 47.332 43.8266 47.612C43.7239 47.8873 43.6726 48.186 43.6726 48.508C43.6726 48.8393 43.7262 49.1473 43.8336 49.432C43.9409 49.7167 44.1112 49.9453 44.3446 50.118C44.5779 50.2907 44.8766 50.377 45.2406 50.377C45.4646 50.377 45.6629 50.3467 45.8356 50.286C46.0082 50.2207 46.1529 50.1297 46.2696 50.013C46.3862 49.8917 46.4656 49.7517 46.5076 49.593H47.2846C47.2239 49.8963 47.1002 50.1577 46.9136 50.377C46.7269 50.5963 46.4912 50.7643 46.2066 50.881C45.9219 50.9977 45.5929 51.056 45.2196 51.056ZM49.1754 51V46.73H47.6074V46.051H51.4784V46.73H49.9174V51H49.1754ZM52.1513 51V46.051H53.9363C54.305 46.051 54.6223 46.1093 54.8883 46.226C55.159 46.3427 55.3666 46.5247 55.5113 46.772C55.656 47.0147 55.7283 47.3297 55.7283 47.717C55.7283 48.0903 55.6443 48.403 55.4763 48.655C55.313 48.907 55.089 49.0983 54.8043 49.229C54.5196 49.355 54.1953 49.418 53.8313 49.418H52.8933V51H52.1513ZM52.8933 48.746H53.8033C54.158 48.746 54.4426 48.6643 54.6573 48.501C54.872 48.333 54.9793 48.0647 54.9793 47.696C54.9793 47.374 54.8906 47.1337 54.7133 46.975C54.536 46.8117 54.2676 46.73 53.9083 46.73H52.8933V48.746ZM58.7492 51.056C58.2405 51.056 57.8089 50.9487 57.4542 50.734C57.1042 50.5147 56.8382 50.2137 56.6562 49.831C56.4742 49.4483 56.3832 49.0143 56.3832 48.529C56.3832 48.039 56.4742 47.6027 56.6562 47.22C56.8382 46.8373 57.1065 46.5387 57.4612 46.324C57.8159 46.1047 58.2475 45.995 58.7562 45.995C59.2695 45.995 59.7012 46.1023 60.0512 46.317C60.4012 46.5317 60.6672 46.8303 60.8492 47.213C61.0312 47.5957 61.1222 48.032 61.1222 48.522C61.1222 49.0073 61.0312 49.4413 60.8492 49.824C60.6672 50.2067 60.3989 50.5077 60.0442 50.727C59.6942 50.9463 59.2625 51.056 58.7492 51.056ZM58.7562 50.377C59.1295 50.377 59.4352 50.2907 59.6732 50.118C59.9112 49.9453 60.0862 49.719 60.1982 49.439C60.3102 49.159 60.3662 48.8557 60.3662 48.529C60.3662 48.2817 60.3335 48.046 60.2682 47.822C60.2075 47.598 60.1119 47.3997 59.9812 47.227C59.8505 47.0543 59.6825 46.919 59.4772 46.821C59.2719 46.723 59.0315 46.674 58.7562 46.674C58.3875 46.674 58.0819 46.7603 57.8392 46.933C57.6012 47.1057 57.4239 47.332 57.3072 47.612C57.1905 47.892 57.1322 48.1977 57.1322 48.529C57.1322 48.8557 57.1882 49.159 57.3002 49.439C57.4169 49.719 57.5942 49.9453 57.8322 50.118C58.0749 50.2907 58.3829 50.377 58.7562 50.377ZM62.0087 51V46.051H62.7507V49.803L65.3057 46.051H66.0197V51H65.2847V47.283L62.7157 51H62.0087ZM64.0247 45.673C63.7541 45.673 63.5207 45.631 63.3247 45.547C63.1334 45.463 62.9841 45.3393 62.8767 45.176C62.7741 45.0127 62.7181 44.812 62.7087 44.574H63.3737C63.3784 44.7467 63.4391 44.8773 63.5557 44.966C63.6771 45.0547 63.8334 45.099 64.0247 45.099C64.2161 45.099 64.3701 45.0547 64.4867 44.966C64.6034 44.8773 64.6664 44.7467 64.6757 44.574H65.3337C65.3291 44.812 65.2731 45.0127 65.1657 45.176C65.0584 45.3393 64.9091 45.463 64.7177 45.547C64.5264 45.631 64.2954 45.673 64.0247 45.673ZM67.5265 51.07C67.3865 51.07 67.2699 51.0257 67.1765 50.937C67.0879 50.8483 67.0435 50.7317 67.0435 50.587C67.0435 50.4423 67.0902 50.3257 67.1835 50.237C67.2769 50.1437 67.3912 50.097 67.5265 50.097C67.6619 50.097 67.7739 50.1437 67.8625 50.237C67.9559 50.3257 68.0025 50.4423 68.0025 50.587C68.0025 50.7317 67.9559 50.8483 67.8625 50.937C67.7739 51.0257 67.6619 51.07 67.5265 51.07ZM70.704 51V46.051H71.446V48.228H73.924V46.051H74.666V51H73.924V48.907H71.446V51H70.704ZM75.299 51L77.168 46.051H78.127L79.989 51H79.191L78.827 50.006H76.461L76.097 51H75.299ZM76.706 49.341H78.582L77.644 46.758L76.706 49.341ZM82.5506 51.056C82.042 51.056 81.615 50.9487 81.2696 50.734C80.929 50.5193 80.6723 50.223 80.4996 49.845C80.327 49.467 80.2406 49.0307 80.2406 48.536C80.2406 48.0413 80.327 47.6027 80.4996 47.22C80.677 46.8373 80.936 46.5387 81.2766 46.324C81.622 46.1047 82.049 45.995 82.5576 45.995C82.9263 45.995 83.2483 46.0557 83.5236 46.177C83.799 46.2937 84.0206 46.4617 84.1886 46.681C84.3613 46.8957 84.4756 47.1523 84.5316 47.451H83.8036C83.7336 47.213 83.5913 47.024 83.3766 46.884C83.162 46.744 82.8866 46.674 82.5506 46.674C82.1773 46.674 81.8763 46.7603 81.6476 46.933C81.4236 47.1057 81.2603 47.332 81.1576 47.612C81.055 47.8873 81.0036 48.186 81.0036 48.508C81.0036 48.8393 81.0573 49.1473 81.1646 49.432C81.272 49.7167 81.4423 49.9453 81.6756 50.118C81.909 50.2907 82.2076 50.377 82.5716 50.377C82.7956 50.377 82.994 50.3467 83.1666 50.286C83.3393 50.2207 83.484 50.1297 83.6006 50.013C83.7173 49.8917 83.7966 49.7517 83.8386 49.593H84.6156C84.555 49.8963 84.4313 50.1577 84.2446 50.377C84.058 50.5963 83.8223 50.7643 83.5376 50.881C83.253 50.9977 82.924 51.056 82.5506 51.056ZM84.9113 51.042V50.321C85.042 50.321 85.1516 50.2953 85.2403 50.244C85.3336 50.188 85.4083 50.1133 85.4643 50.02C85.525 49.922 85.567 49.8123 85.5903 49.691C85.623 49.551 85.6463 49.4063 85.6603 49.257C85.6743 49.1077 85.6836 48.9583 85.6883 48.809C85.6976 48.6597 85.7023 48.5197 85.7023 48.389L85.7373 46.051H89.1113V51H88.3693V46.73H86.4583L86.4303 48.151C86.421 48.4963 86.4116 48.8277 86.4023 49.145C86.393 49.4577 86.3603 49.7423 86.3043 49.999C86.253 50.251 86.155 50.461 86.0103 50.629C85.8936 50.7643 85.7466 50.8647 85.5693 50.93C85.3966 50.9953 85.1773 51.0327 84.9113 51.042ZM89.7433 51L91.6123 46.051H92.5713L94.4333 51H93.6353L93.2713 50.006H90.9053L90.5413 51H89.7433ZM91.1503 49.341H93.0263L92.0883 46.758L91.1503 49.341ZM94.5635 51L95.9145 48.48L94.5635 46.051H95.3895L96.5375 48.228H97.2445V46.051H97.9865V48.228H98.7075L99.8625 46.051H100.674L99.3165 48.48L100.681 51H99.8135L98.7145 48.9H97.9865V51H97.2445V48.9H96.5235L95.4175 51H94.5635ZM100.902 52.33V50.321C101.079 50.321 101.212 50.2837 101.301 50.209C101.389 50.1343 101.455 50.0387 101.497 49.922C101.539 49.81 101.571 49.6817 101.595 49.537C101.623 49.3923 101.646 49.2407 101.665 49.082C101.683 48.9233 101.697 48.7647 101.707 48.606C101.735 48.172 101.753 47.7427 101.763 47.318C101.777 46.8933 101.786 46.471 101.791 46.051H105.067V50.321H105.662V52.33H104.92V51H101.644V52.33H100.902ZM102.162 50.321H104.325V46.73H102.498L102.442 48.529C102.437 48.6363 102.43 48.7623 102.421 48.907C102.416 49.0517 102.404 49.2057 102.386 49.369C102.367 49.5277 102.339 49.691 102.302 49.859C102.269 50.0223 102.222 50.1763 102.162 50.321ZM105.979 51L107.848 46.051H108.807L110.669 51H109.871L109.507 50.006H107.141L106.777 51H105.979ZM107.386 49.341H109.262L108.324 46.758L107.386 49.341ZM111.296 51V46.051H112.038V49.803L114.593 46.051H115.307V51H114.572V47.283L112.003 51H111.296ZM113.312 45.673C113.041 45.673 112.808 45.631 112.612 45.547C112.421 45.463 112.271 45.3393 112.164 45.176C112.061 45.0127 112.005 44.812 111.996 44.574H112.661C112.666 44.7467 112.726 44.8773 112.843 44.966C112.964 45.0547 113.121 45.099 113.312 45.099C113.503 45.099 113.657 45.0547 113.774 44.966C113.891 44.8773 113.954 44.7467 113.963 44.574H114.621C114.616 44.812 114.56 45.0127 114.453 45.176C114.346 45.3393 114.196 45.463 114.005 45.547C113.814 45.631 113.583 45.673 113.312 45.673ZM118.508 51.056C117.999 51.056 117.572 50.9487 117.227 50.734C116.886 50.5193 116.629 50.223 116.457 49.845C116.284 49.467 116.198 49.0307 116.198 48.536C116.198 48.0413 116.284 47.6027 116.457 47.22C116.634 46.8373 116.893 46.5387 117.234 46.324C117.579 46.1047 118.006 45.995 118.515 45.995C118.883 45.995 119.205 46.0557 119.481 46.177C119.756 46.2937 119.978 46.4617 120.146 46.681C120.318 46.8957 120.433 47.1523 120.489 47.451H119.761C119.691 47.213 119.548 47.024 119.334 46.884C119.119 46.744 118.844 46.674 118.508 46.674C118.134 46.674 117.833 46.7603 117.605 46.933C117.381 47.1057 117.217 47.332 117.115 47.612C117.012 47.8873 116.961 48.186 116.961 48.508C116.961 48.8393 117.014 49.1473 117.122 49.432C117.229 49.7167 117.399 49.9453 117.633 50.118C117.866 50.2907 118.165 50.377 118.529 50.377C118.753 50.377 118.951 50.3467 119.124 50.286C119.296 50.2207 119.441 50.1297 119.558 50.013C119.674 49.8917 119.754 49.7517 119.796 49.593H120.573C120.512 49.8963 120.388 50.1577 120.202 50.377C120.015 50.5963 119.779 50.7643 119.495 50.881C119.21 50.9977 118.881 51.056 118.508 51.056ZM121.265 51L122.385 49.068C122.063 48.984 121.799 48.823 121.594 48.585C121.393 48.347 121.293 48.0273 121.293 47.626C121.293 47.3367 121.337 47.094 121.426 46.898C121.519 46.6973 121.648 46.534 121.811 46.408C121.974 46.282 122.17 46.191 122.399 46.135C122.628 46.079 122.877 46.051 123.148 46.051H125.017V51H124.275V49.201H123.12L122.112 51H121.265ZM123.274 48.536H124.275V46.73H123.12C122.877 46.73 122.677 46.7627 122.518 46.828C122.359 46.8887 122.238 46.9843 122.154 47.115C122.075 47.2457 122.035 47.4137 122.035 47.619C122.035 47.8663 122.093 48.0577 122.21 48.193C122.327 48.3237 122.478 48.4147 122.665 48.466C122.856 48.5127 123.059 48.536 123.274 48.536ZM126.521 51.07C126.381 51.07 126.264 51.0257 126.171 50.937C126.082 50.8483 126.038 50.7317 126.038 50.587C126.038 50.4423 126.084 50.3257 126.178 50.237C126.271 50.1437 126.385 50.097 126.521 50.097C126.656 50.097 126.768 50.1437 126.857 50.237C126.95 50.3257 126.997 50.4423 126.997 50.587C126.997 50.7317 126.95 50.8483 126.857 50.937C126.768 51.0257 126.656 51.07 126.521 51.07Z" fill="#D8C3A5"/>
</svg>
