<svg width="89" height="76" viewBox="0 0 89 76" fill="none" xmlns="http://www.w3.org/2000/svg">
<path d="M66.0126 16C69.8786 16 73.0126 19.134 73.0126 23C73.0126 23.8529 72.8592 24.6699 72.58 25.4258C75.7345 26.498 78.0048 29.4829 78.0048 33C78.0048 34.0687 77.7932 35.0876 77.413 36.0195C80.7291 37.6475 83.0126 41.0564 83.0126 45C83.0126 50.5228 78.5354 55 73.0126 55C71.7811 55 70.602 54.7763 69.5126 54.3691C68.4231 54.7763 67.244 55 66.0126 55C64.2617 55 62.6168 54.5484 61.1854 53.7578C60.4832 53.914 59.754 54 59.0048 54C53.4819 54 49.0048 49.5228 49.0048 44C49.0048 40.5267 50.7758 37.4674 53.4637 35.6748C53.167 34.8384 53.0048 33.9382 53.0048 33C53.0048 29.1468 55.7289 25.9298 59.3563 25.1699C59.1337 24.4867 59.0126 23.7575 59.0126 23C59.0126 19.134 62.1466 16 66.0126 16Z" fill="#FEFCF3"/>
<circle cx="29.0048" cy="16" r="5" fill="#FEFCF3"/>
<path d="M23.9628 50.1217V66.8279H54.0253V50.1217L58.4803 49.5648L59.0372 48.4511L38.4329 30.0742L18.9423 48.4511L19.4991 49.5648L23.9628 50.1217Z" fill="#FEFCF3"/>
<path d="M79.0864 35.4832C79.2923 34.7125 79.3964 33.9181 79.3958 33.1203C79.3958 29.2867 76.966 25.8337 73.413 24.5033C73.4446 24.2133 73.4612 23.9168 73.4612 23.6182C73.4612 19.3313 69.97 15.8438 65.6795 15.8438C61.3925 15.8438 57.9043 19.3313 57.9043 23.6182C57.9043 23.9161 57.9208 24.2126 57.9532 24.5033C54.3994 25.8344 51.971 29.2867 51.971 33.1203C51.971 33.9233 52.0739 34.7155 52.2797 35.4825C51.1969 36.204 50.2533 37.1151 49.4944 38.1721L40.3456 29.84C39.9309 29.4667 39.3927 29.2601 38.8348 29.26C38.2768 29.2599 37.7385 29.4662 37.3236 29.8393L18.7872 46.723C18.4507 47.0268 18.2148 47.426 18.111 47.8673C18.0071 48.3086 18.0402 48.7711 18.2058 49.1931C18.3674 49.6164 18.6543 49.9804 19.0282 50.2365C19.402 50.4926 19.845 50.6286 20.2982 50.6264H23.2597V65.8437C23.2597 66.1049 23.313 66.3517 23.3957 66.5848H19.1879C18.7731 66.5848 18.4367 66.9211 18.4367 67.336C18.4367 67.7509 18.7731 68.0872 19.1879 68.0872H79.5102C79.9251 68.0872 80.2614 67.7509 80.2614 67.336C80.2614 66.9211 79.9251 66.5848 79.5102 66.5848H66.4321V55.1515H71.4012C71.9135 56.1286 72.9266 56.8036 74.1044 56.8036C74.8003 56.8022 75.4749 56.5642 76.0176 56.1286C76.5602 55.6931 76.9386 55.0859 77.0905 54.4068C79.0977 53.6228 80.8216 52.2514 82.0369 50.4719C83.2523 48.6924 83.9023 46.5876 83.9022 44.4327C83.9022 40.8351 82.071 37.4584 79.0864 35.4832ZM36.625 66.5848H29.6088V55.7674C29.6088 55.358 29.9413 55.0249 30.35 55.0249H35.8831C36.2918 55.0249 36.625 55.358 36.625 55.7674V66.5848ZM38.1273 66.5848V55.7674C38.1273 54.5299 37.1207 53.5225 35.8831 53.5225H30.35C29.1124 53.5225 28.1065 54.5299 28.1065 55.7674V66.5848H25.5039C25.0953 66.5848 24.7621 66.2517 24.7621 65.8437V49.8752L24.0109 49.124H20.2982C19.8262 49.124 19.6491 48.7621 19.606 48.6506C19.5628 48.5391 19.4498 48.152 19.7995 47.8332L38.3353 30.9495C38.6159 30.6941 39.0526 30.6934 39.3333 30.9495L57.869 47.8332C58.2194 48.152 58.1057 48.5384 58.0626 48.6499C58.0194 48.7614 57.8424 49.1248 57.3697 49.1248H53.6576L52.9071 49.8752V65.8437C52.9071 66.2517 52.574 66.5848 52.1653 66.5848H38.1273ZM64.9305 66.5848H54.2735C54.3556 66.3517 54.4088 66.1049 54.4088 65.8437V54.4608C55.6046 54.9126 56.8883 55.1515 58.1827 55.1515H64.9305V66.5848ZM74.1044 55.3019C73.6904 55.3015 73.2935 55.1369 73.0008 54.8442C72.7081 54.5514 72.5434 54.1545 72.543 53.7405C72.543 52.8793 73.2439 52.1792 74.1044 52.1792C74.9657 52.1792 75.6658 52.8793 75.6658 53.7405C75.6658 54.6011 74.9657 55.3019 74.1044 55.3019ZM77.0099 52.8145C76.6141 51.5791 75.4687 50.6768 74.1044 50.6768C72.4459 50.6768 71.0997 52.0029 71.05 53.6484H66.4328V37.6051L69.2688 34.7691C69.5623 34.4757 69.5621 33.9999 69.2685 33.7067C68.9752 33.4138 68.5 33.414 68.2068 33.7071L66.4328 35.4811V31.7014C66.4328 31.2865 66.0965 30.9502 65.6816 30.9502C65.2668 30.9502 64.9305 31.2865 64.9305 31.7014V44.5299L60.301 39.9004C60.0077 39.6072 59.5322 39.6072 59.239 39.9004C58.9457 40.1937 58.9457 40.6692 59.2389 40.9625L64.9305 46.6546V53.6484H58.1827C56.8725 53.6484 55.5816 53.3549 54.4088 52.8217V50.6271H57.3697C57.8231 50.6292 58.2665 50.493 58.6405 50.2366C59.0146 49.9803 59.3017 49.616 59.4635 49.1924C59.6289 48.7704 59.6619 48.308 59.5579 47.8668C59.4539 47.4257 59.2179 47.0266 58.8814 46.723L50.6169 39.1953C51.3882 38.0872 52.3805 37.1432 53.5425 36.4654L53.8763 35.5753C53.6084 34.7846 53.4723 33.9552 53.4734 33.1203C53.4734 29.7277 55.7471 26.6913 59.0023 25.7358L59.5275 24.8673C59.4465 24.4559 59.406 24.0376 59.4066 23.6182C59.4066 20.1595 62.2207 17.3461 65.6795 17.3461C69.1418 17.3461 71.9588 20.1595 71.9588 23.6182C71.9588 24.0485 71.9185 24.4687 71.8379 24.8673L72.3632 25.7358C75.619 26.6913 77.8927 29.7277 77.8927 33.1203C77.8938 33.9552 77.7577 34.7846 77.4898 35.5753L77.8222 36.4654C79.2126 37.2802 80.3663 38.4438 81.1691 39.8411C81.972 41.2385 82.3962 42.8212 82.3999 44.4327C82.4001 46.1997 81.8921 47.9294 80.9364 49.4156C79.9807 50.9017 78.6177 52.0816 77.0099 52.8145Z" fill="#8E8D8A" stroke="#8E8D8A" stroke-width="0.508122"/>
<path d="M45.7594 42.9325C45.4531 42.6534 45.431 42.179 45.7099 41.8726C45.9889 41.5662 46.4635 41.544 46.7699 41.823L47.1729 42.1899C47.4793 42.4688 47.5016 42.9433 47.2227 43.2498C46.9436 43.5565 46.4688 43.5787 46.1623 43.2995L45.7594 42.9325ZM43.6774 39.9887C43.9571 39.682 43.9351 39.2067 43.6282 38.9272L39.3372 35.0183C38.9643 34.6915 38.7089 34.6783 38.3248 35.0183L36.3189 36.8455C36.0121 37.1251 35.9901 37.6004 36.2697 37.9072C36.5492 38.2136 37.0241 38.2357 37.3308 37.9564L38.8313 36.5898L42.6164 40.0379C42.923 40.3172 43.398 40.2952 43.6774 39.9887ZM47.5448 53.521H42.2383C41.7038 53.5217 41.1914 53.7345 40.8135 54.1126C40.4357 54.4907 40.2233 55.0033 40.2229 55.5378V59.4326C40.2233 59.9671 40.4357 60.4797 40.8135 60.8578C41.1914 61.2359 41.7038 61.4487 42.2383 61.4494H47.5455C48.0803 61.449 48.5931 61.2364 48.9712 60.8583C49.3494 60.4801 49.562 59.9674 49.5624 59.4326V55.5378C49.562 55.003 49.3494 54.4902 48.9712 54.1121C48.5931 53.7339 48.0796 53.5213 47.5448 53.521ZM48.0593 59.4326C48.0593 59.7168 47.829 59.9471 47.5448 59.9471H42.2383C42.1021 59.9467 41.9716 59.8923 41.8754 59.7959C41.7793 59.6994 41.7253 59.5688 41.7253 59.4326V55.5378C41.7253 55.2536 41.9555 55.0233 42.2383 55.0233H47.5455C47.8297 55.0233 48.06 55.2536 48.06 55.5378L48.0593 59.4326ZM27.5074 3.875H29.0098V7.68921H27.5074V3.875ZM27.5074 25.4896H29.0098V29.3038H27.5074V25.4896ZM37.1584 15.8386H40.9726V17.341H37.1584V15.8386ZM15.5438 15.8386H19.358V17.341H15.5438V15.8386ZM34.0177 9.76577L36.7138 7.06898L37.7765 8.13172L35.0797 10.8278L34.0177 9.76577ZM18.7349 25.0457L21.4317 22.3489L22.4937 23.4109L19.7977 26.1077L18.7349 25.0457ZM34.0155 23.4166L35.0776 22.3546L37.7743 25.0507L36.7123 26.1134L34.0155 23.4166ZM18.7349 8.13028L19.7977 7.06826L22.4945 9.76505L21.4317 10.8271L18.7349 8.13028ZM34.0954 16.589C34.0954 13.3713 31.477 10.753 28.2586 10.753C25.0401 10.753 22.4218 13.3713 22.4218 16.5898C22.4218 19.8082 25.0394 22.4266 28.2586 22.4266C31.4778 22.4266 34.0954 19.8068 34.0954 16.589ZM28.2586 20.9242C25.8683 20.9242 23.9242 18.9793 23.9242 16.5898C23.9242 14.2002 25.8683 12.2546 28.2586 12.2546C30.6489 12.2546 32.593 14.1995 32.593 16.5898C32.593 18.98 30.6481 20.9242 28.2586 20.9242Z" fill="#8E8D8A" stroke="#8E8D8A" stroke-width="0.508122"/>
<mask id="path-6-inside-1_104_2163" fill="white">
<rect width="88.1219" height="8.89303" rx="0.472541" transform="matrix(-1 0 0 1 88.1219 66.293)"/>
</mask>
<rect width="88.1219" height="8.89303" rx="0.472541" transform="matrix(-1 0 0 1 88.1219 66.293)" fill="#FEFCF3" stroke="#8E8D8A" stroke-width="3.30779" mask="url(#path-6-inside-1_104_2163)"/>
</svg>
