<svg width="90" height="66" viewBox="0 0 90 66" fill="none" xmlns="http://www.w3.org/2000/svg">
<mask id="path-1-inside-1_104_2200" fill="white">
<rect width="80" height="7" rx="0.535235" transform="matrix(-1 0 0 1 86 59)"/>
</mask>
<rect width="80" height="7" rx="0.535235" transform="matrix(-1 0 0 1 86 59)" fill="#FEFCF3" stroke="#8E8D8A" stroke-width="3.74664" mask="url(#path-1-inside-1_104_2200)"/>
<g clip-path="url(#clip0_104_2200)">
<path d="M49.9688 26V36.5H82.9688V26L65.9688 17.5L49.9688 26Z" fill="#FEFCF3"/>
<path d="M43.9688 23.5V28L65.9688 17L88.4688 28V23.5L65.9688 13L43.9688 23.5Z" fill="#FEFCF3"/>
<path d="M57.6212 28.3438H53.9992C53.4992 28.3438 53.0938 28.7492 53.0938 29.2492V32.8712C53.0938 33.3713 53.4992 33.7767 53.9992 33.7767H57.6212C58.1213 33.7767 58.5267 33.3713 58.5267 32.8712V29.2492C58.5267 28.7492 58.1213 28.3438 57.6212 28.3438ZM56.7157 31.9657H54.9047V30.1547H56.7157V31.9657ZM74.8255 28.3438C74.3255 28.3438 73.9201 28.7492 73.9201 29.2492V32.8712C73.9201 33.3713 74.3255 33.7767 74.8255 33.7767H78.4475C78.9476 33.7767 79.353 33.3713 79.353 32.8712V29.2492C79.353 28.7492 78.9476 28.3438 78.4475 28.3438H74.8255ZM77.5421 31.9657H75.7311V30.1547H77.5421V31.9657Z" fill="#8E8D8A"/>
<path d="M88.8237 22.4511L66.6391 11.238C66.5125 11.174 66.3726 11.1406 66.2307 11.1406C66.0888 11.1406 65.9488 11.174 65.8222 11.238L43.6377 22.4511C43.4882 22.5266 43.3626 22.6422 43.2749 22.7848C43.1871 22.9275 43.1406 23.0917 43.1406 23.2592V28.3321C43.1406 29.0069 43.8534 29.4438 44.4546 29.1402L48.5736 27.0582V36.4943C48.5736 36.9944 48.979 37.3998 49.4791 37.3998H53.1011V39.2108H52.1956C51.9896 39.2108 51.7897 39.281 51.629 39.41C51.4683 39.5389 51.3564 39.7188 51.3117 39.9199L47.8473 55.5098H46.7626C46.2626 55.5098 45.8572 55.9152 45.8572 56.4153C45.8572 56.9153 46.2626 57.3207 46.7626 57.3207H50.3846C50.8847 57.3207 51.2901 56.9153 51.2901 56.4153C51.2901 55.9152 50.8847 55.5098 50.3846 55.5098H49.7024L52.9219 41.022H60.345V56.4153C60.345 56.9154 60.7504 57.3208 61.2505 57.3208C61.7505 57.3208 62.1559 56.9154 62.1559 56.4153V54.6043H70.3054V56.4153C70.3054 56.9154 70.7108 57.3208 71.2108 57.3208C71.7109 57.3208 72.1163 56.9154 72.1163 56.4153V41.022H79.5394L82.7589 55.5098H82.0767C81.5766 55.5098 81.1712 55.9152 81.1712 56.4153C81.1712 56.9153 81.5766 57.3207 82.0767 57.3207H85.6987C86.1987 57.3207 86.6041 56.9153 86.6041 56.4153C86.6041 55.9152 86.1987 55.5098 85.6987 55.5098H84.614L81.1496 39.9201C81.1049 39.7189 80.993 39.5391 80.8323 39.4101C80.6716 39.2812 80.4717 39.211 80.2657 39.211H79.3602V37.4H82.9822C83.4823 37.4 83.8877 36.9945 83.8877 36.4945V27.0583L88.0067 29.1402C88.609 29.4447 89.3207 29.0055 89.3207 28.3321V23.2593C89.3207 23.0918 89.2743 22.9276 89.1865 22.7849C89.0988 22.6422 88.9732 22.5266 88.8237 22.4511ZM54.912 39.211V37.4H56.723V39.211H54.912ZM63.5142 37.4V39.211H58.534V37.4H63.5142ZM63.0615 31.9669H63.9669C64.467 31.9669 64.8724 31.5615 64.8724 31.0615C64.8724 30.5614 64.467 30.156 63.9669 30.156H63.0615V26.534H69.3999V35.589H63.0615V31.9669ZM68.9472 39.211V37.4H73.9274V39.211H68.9472ZM65.3252 37.4H67.1362V39.211H65.3252V37.4ZM70.3054 48.2659H62.1559V45.5494H70.3054V48.2659ZM62.156 52.7933V50.0769H70.3055V52.7933H62.156ZM70.3054 43.7384H62.1559V41.022H70.3054V43.7384ZM77.5494 39.211H75.7384V37.4H77.5494V39.211ZM82.0769 35.589H71.2109V25.6286C71.2109 25.1285 70.8055 24.7231 70.3055 24.7231H62.156C61.656 24.7231 61.2506 25.1285 61.2506 25.6286V35.589H50.3846V26.143L56.7768 22.912H75.6846L82.0768 26.143V35.589H82.0769ZM60.3597 21.1011L66.2307 18.1337L72.1017 21.1011H60.3597ZM87.5098 26.8599L66.6391 16.3109C66.5125 16.2469 66.3726 16.2135 66.2307 16.2135C66.0888 16.2135 65.9488 16.2469 65.8222 16.3109L44.9516 26.8599V23.8161L66.2307 13.0608L87.5098 23.8162V26.8599Z" fill="#8E8D8A"/>
</g>
<g clip-path="url(#clip1_104_2200)">
<path d="M18.6949 27.3945L5.82812 40.2678V44.5546C10.1181 44.5546 10.1181 45.4139 12.6928 47.9853L15.7895 51.0852C16.1706 51.4681 16.6237 51.7719 17.1225 51.9792C17.6214 52.1865 18.1563 52.2932 18.6965 52.2932C19.2368 52.2932 19.7717 52.1865 20.2705 51.9792C20.7694 51.7719 21.2224 51.4681 21.6036 51.0852L27.2782 45.4106V35.9746L18.6949 27.3945ZM13.9801 37.972C14.4179 37.972 14.8556 38.1406 15.1929 38.4746L20.9161 44.1979C21.0762 44.357 21.2033 44.5462 21.29 44.7546C21.3767 44.963 21.4213 45.1865 21.4213 45.4123C21.4213 45.638 21.3767 45.8615 21.29 46.0699C21.2033 46.2783 21.0762 46.4675 20.9161 46.6266L20.3389 47.2006C20.1799 47.3602 19.9909 47.4868 19.7828 47.5732C19.5746 47.6597 19.3515 47.7041 19.1262 47.7041C18.9008 47.7041 18.6777 47.6597 18.4696 47.5732C18.2615 47.4868 18.0725 47.3602 17.9134 47.2006L12.1902 41.4806C12.0306 41.3215 11.9039 41.1325 11.8175 40.9244C11.7311 40.7163 11.6866 40.4931 11.6866 40.2678C11.6866 40.0425 11.7311 39.8193 11.8175 39.6112C11.9039 39.4031 12.0306 39.2141 12.1902 39.0551L12.7641 38.4779C12.9237 38.318 13.1132 38.1913 13.3219 38.1051C13.5306 38.0188 13.7543 37.9747 13.9801 37.9753V37.972Z" fill="#FEFCF3"/>
<path d="M19.5547 28.2492L45.2948 2.51562L47.8694 5.09028L48.7255 7.66493L46.1541 8.52099L47.0101 11.0956L44.4355 11.9549L45.2948 14.5296L42.7201 15.3857L43.5794 17.9603L41.0047 18.8164L41.864 21.391L39.2894 22.2503L40.1454 24.825L37.574 25.681L38.4301 28.2557L35.8554 29.1117L36.7147 31.6864L34.1401 32.5457L34.9994 35.1204L32.4247 35.9764L33.284 38.5511L30.7094 39.4071L31.5687 41.9818H27.2787V35.9764L19.5547 28.2492Z" fill="#FEFCF3"/>
<path d="M45.2553 1.65345C45.0408 1.66625 44.8381 1.75606 44.6846 1.90638L21.9472 24.6438C21.1041 25.4544 22.3525 26.6996 23.1632 25.8565L45.291 3.72874L47.1166 5.5511L47.6354 7.12054L45.8779 7.70422C45.6616 7.77603 45.4827 7.93082 45.3805 8.13453C45.2784 8.33825 45.2613 8.57421 45.3331 8.7905L45.92 10.5513L44.1625 11.1349C44.055 11.1705 43.9557 11.2269 43.8701 11.3009C43.7845 11.375 43.7143 11.4652 43.6637 11.5665C43.6131 11.6677 43.583 11.778 43.5751 11.8909C43.5672 12.0038 43.5817 12.1172 43.6178 12.2245L44.2047 13.982L42.4439 14.5689C42.2282 14.6414 42.0501 14.7964 41.9486 15.0001C41.847 15.2037 41.8304 15.4393 41.9024 15.6552L42.4861 17.4159L40.7286 17.9996C40.5129 18.0721 40.3347 18.2271 40.2332 18.4308C40.1317 18.6344 40.1151 18.87 40.187 19.0859L40.7707 20.8466L39.0132 21.4303C38.906 21.4662 38.807 21.5228 38.7217 21.597C38.6365 21.6712 38.5667 21.7615 38.5164 21.8627C38.4661 21.9639 38.4363 22.0741 38.4286 22.1868C38.4209 22.2996 38.4356 22.4127 38.4717 22.5198L39.0554 24.2773L37.2979 24.8643C37.0822 24.9367 36.904 25.0918 36.8025 25.2954C36.701 25.4991 36.6844 25.7347 36.7563 25.9505L37.34 27.7113L35.5825 28.295C35.3662 28.3668 35.1873 28.5216 35.0851 28.7253C34.983 28.929 34.9659 29.165 35.0377 29.3813L35.6246 31.142L33.8671 31.7257C33.7597 31.7612 33.6603 31.8176 33.5747 31.8917C33.4891 31.9658 33.419 32.056 33.3683 32.1572C33.3177 32.2585 33.2876 32.3687 33.2797 32.4816C33.2718 32.5945 33.2863 32.7079 33.3224 32.8152L33.9093 34.5727L32.1485 35.1596C31.9328 35.2321 31.7547 35.3872 31.6532 35.5908C31.5517 35.7945 31.5351 36.0301 31.607 36.2459L32.1907 38.0067L30.4332 38.5903C30.2175 38.6628 30.0393 38.8179 29.9378 39.0215C29.8363 39.2252 29.8197 39.4608 29.8917 39.6766L30.3716 41.1228H28.1342V35.9735C28.1338 35.86 28.111 35.7477 28.0671 35.6431C28.0231 35.5385 27.9588 35.4436 27.878 35.3639L19.3077 26.7904C19.2281 26.7101 19.1334 26.6464 19.029 26.6029C18.9247 26.5594 18.8128 26.537 18.6997 26.537C18.5866 26.537 18.4747 26.5594 18.3704 26.6029C18.266 26.6464 18.1713 26.7101 18.0917 26.7904L5.22168 39.6604C5.06037 39.8211 4.96941 40.0391 4.96875 40.2668V44.5568C4.96875 45.0302 5.35787 45.4129 5.83129 45.4096C7.91631 45.4096 8.77236 45.6107 9.44683 46.029C10.1181 46.4505 10.7666 47.2741 12.0863 48.5939L15.1831 51.6906C16.1167 52.6215 17.3813 53.1442 18.6997 53.1442C20.0181 53.1442 21.2827 52.6215 22.2163 51.6906L27.8812 46.016C28.0434 45.8557 28.1355 45.6377 28.1374 45.4096V42.8382H31.5649C32.1485 42.8382 32.5636 42.2643 32.3755 41.7098L31.7919 39.949L33.5494 39.3653C33.6568 39.3298 33.7562 39.2734 33.8418 39.1993C33.9274 39.1253 33.9975 39.035 34.0482 38.9338C34.0988 38.8325 34.1289 38.7223 34.1368 38.6094C34.1447 38.4965 34.1302 38.3831 34.0941 38.2758L33.5105 36.5183L35.268 35.9314C35.4837 35.8589 35.6618 35.7038 35.7633 35.5002C35.8648 35.2966 35.8814 35.061 35.8095 34.8451L35.2258 33.0843L36.9833 32.5007C37.199 32.4282 37.3772 32.2731 37.4787 32.0695C37.5802 31.8658 37.5968 31.6303 37.5248 31.4144L36.9412 29.6536L38.6987 29.07C38.8058 29.0341 38.9049 28.9774 38.9901 28.9032C39.0754 28.829 39.1452 28.7387 39.1955 28.6375C39.2458 28.5363 39.2756 28.4262 39.2833 28.3134C39.291 28.2007 39.2763 28.0875 39.2402 27.9804L38.6565 26.2229L40.414 25.636C40.6303 25.5642 40.8092 25.4094 40.9114 25.2057C41.0135 25.002 41.0306 24.766 40.9588 24.5497L40.3719 22.789L42.1294 22.2053C42.3457 22.1335 42.5246 21.9787 42.6267 21.775C42.7289 21.5713 42.746 21.3353 42.6741 21.119L42.0872 19.3583L43.8447 18.7746C43.9522 18.739 44.0516 18.6826 44.1372 18.6086C44.2228 18.5345 44.2929 18.4443 44.3435 18.343C44.3941 18.2418 44.4243 18.1315 44.4322 18.0186C44.44 17.9057 44.4255 17.7924 44.3895 17.6851L43.8058 15.9275L45.5633 15.3406C45.779 15.2682 45.9572 15.1131 46.0587 14.9094C46.1602 14.7058 46.1768 14.4702 46.1049 14.2543L45.5212 12.4936L47.2787 11.9099C47.4944 11.8374 47.6725 11.6824 47.774 11.4787C47.8756 11.2751 47.8922 11.0395 47.8202 10.8236L47.2365 9.06288L48.994 8.47921C49.1012 8.44334 49.2003 8.38668 49.2855 8.31248C49.3708 8.23828 49.4405 8.14799 49.4908 8.04679C49.5411 7.94558 49.571 7.83544 49.5787 7.72269C49.5863 7.60993 49.5717 7.49677 49.5356 7.38968L48.6795 4.81503C48.6371 4.68915 48.566 4.57483 48.472 4.48103L45.8973 1.90638C45.8146 1.82081 45.7145 1.75397 45.6037 1.71034C45.493 1.66671 45.3742 1.64731 45.2553 1.65345ZM18.6981 28.6063L26.4156 36.327V45.0529L20.9939 50.4746C20.6933 50.7801 20.335 51.0227 19.9397 51.1884C19.5444 51.354 19.1202 51.4393 18.6916 51.4393C18.263 51.4393 17.8388 51.354 17.4435 51.1884C17.0482 51.0227 16.6899 50.7801 16.3893 50.4746L13.2926 47.3779C12.0409 46.1262 11.3989 45.2313 10.3548 44.5795C9.51169 44.0509 8.43513 43.7461 6.68086 43.6975V40.6202L18.6981 28.6063ZM18.6948 32.5428C18.5778 32.5356 18.4605 32.5525 18.3502 32.5923C18.2398 32.6322 18.1389 32.6942 18.0534 32.7745C17.968 32.8549 17.8999 32.9519 17.8533 33.0595C17.8068 33.1672 17.7828 33.2832 17.7828 33.4005C17.7828 33.5178 17.8068 33.6338 17.8533 33.7415C17.8999 33.8492 17.968 33.9461 18.0534 34.0265C18.1389 34.1068 18.2398 34.1688 18.3502 34.2087C18.4605 34.2485 18.5778 34.2654 18.6948 34.2582C18.9227 34.2582 19.1413 34.1676 19.3025 34.0065C19.4636 33.8453 19.5541 33.6268 19.5541 33.3989C19.5541 33.171 19.4636 32.9524 19.3025 32.7913C19.1413 32.6301 18.9227 32.5428 18.6948 32.5428ZM22.1255 35.1175C22.0085 35.1103 21.8912 35.1271 21.7809 35.167C21.6706 35.2068 21.5696 35.2688 21.4841 35.3492C21.3987 35.4295 21.3306 35.5265 21.284 35.6342C21.2375 35.7418 21.2135 35.8579 21.2135 35.9752C21.2135 36.0924 21.2375 36.2085 21.284 36.3162C21.3306 36.4238 21.3987 36.5208 21.4841 36.6012C21.5696 36.6815 21.6706 36.7435 21.7809 36.7833C21.8912 36.8232 22.0085 36.84 22.1255 36.8328C22.3534 36.8328 22.572 36.7423 22.7332 36.5812C22.8943 36.42 22.9848 36.2014 22.9848 35.9735C22.9848 35.7456 22.8943 35.5271 22.7332 35.3659C22.572 35.2048 22.3534 35.1175 22.1255 35.1175ZM13.9736 37.1182C13.6362 37.1166 13.3018 37.1816 12.9896 37.3096C12.6774 37.4376 12.3936 37.626 12.1544 37.864L11.5772 38.4412C11.0974 38.9257 10.8283 39.58 10.8283 40.2619C10.8283 40.9438 11.0974 41.5981 11.5772 42.0827L17.3037 47.8092C17.7883 48.289 18.4426 48.5581 19.1245 48.5581C19.8064 48.5581 20.4607 48.289 20.9452 47.8092L21.5224 47.232C22.0022 46.7474 22.2714 46.0931 22.2714 45.4112C22.2714 44.7293 22.0022 44.075 21.5224 43.5905C21.4424 43.5104 21.3473 43.4469 21.2427 43.4036C21.1381 43.3603 21.026 43.338 20.9128 43.338C20.7996 43.338 20.6875 43.3603 20.5829 43.4036C20.4783 43.4469 20.3832 43.5104 20.3032 43.5905C20.2231 43.6706 20.1596 43.7656 20.1163 43.8702C20.073 43.9748 20.0507 44.0869 20.0507 44.2001C20.0507 44.3133 20.073 44.4254 20.1163 44.53C20.1596 44.6346 20.2231 44.7297 20.3032 44.8097C20.3853 44.8876 20.4507 44.9814 20.4954 45.0853C20.5401 45.1893 20.5632 45.3013 20.5632 45.4145C20.5632 45.5277 20.5401 45.6396 20.4954 45.7436C20.4507 45.8476 20.3853 45.9414 20.3032 46.0192L19.7292 46.5932C19.6514 46.6753 19.5576 46.7407 19.4536 46.7854C19.3496 46.8301 19.2377 46.8532 19.1245 46.8532C19.0113 46.8532 18.8993 46.8301 18.7954 46.7854C18.6914 46.7407 18.5976 46.6753 18.5197 46.5932L12.79 40.8699C12.7079 40.7921 12.6425 40.6983 12.5978 40.5943C12.5531 40.4903 12.53 40.3783 12.53 40.2652C12.53 40.152 12.5531 40.04 12.5978 39.936C12.6425 39.8321 12.7079 39.7383 12.79 39.6604L13.3672 39.0832C13.445 39.0011 13.5388 38.9357 13.6428 38.891C13.7468 38.8463 13.8588 38.8232 13.9719 38.8232C14.0851 38.8232 14.1971 38.8463 14.3011 38.891C14.405 38.9357 14.4988 39.0011 14.5767 39.0832L17.6539 42.1605C17.8152 42.3217 18.0339 42.4123 18.2619 42.4123C18.49 42.4123 18.7087 42.3217 18.8699 42.1605C19.0312 41.9992 19.1218 41.7805 19.1218 41.5525C19.1218 41.3245 19.0312 41.1058 18.8699 40.9445L15.7894 37.864C15.3068 37.3847 14.6537 37.1165 13.9736 37.1182ZM23.8409 39.4042C23.613 39.4042 23.3944 39.4948 23.2333 39.6559C23.0721 39.8171 22.9816 40.0356 22.9816 40.2635C22.9816 40.4914 23.0721 40.71 23.2333 40.8712C23.3944 41.0323 23.613 41.1228 23.8409 41.1228C24.0688 41.1228 24.2874 41.0323 24.4485 40.8712C24.6097 40.71 24.7002 40.4914 24.7002 40.2635C24.7002 40.0356 24.6097 39.8171 24.4485 39.6559C24.2874 39.4948 24.0688 39.4042 23.8409 39.4042Z" fill="#8E8D8A"/>
<line x1="1" y1="-1" x2="24.8766" y2="-1" transform="matrix(-1 0 0 1 29.7188 15)" stroke="#8E8D8A" stroke-width="2" stroke-linecap="round"/>
<line x1="11" y1="23" x2="2" y2="23" stroke="#8E8D8A" stroke-width="2" stroke-linecap="round"/>
<line x1="22.5" y1="19.418" x2="9.96774" y2="19.418" stroke="#8E8D8A" stroke-width="2" stroke-linecap="round"/>
</g>
<defs>
<clipPath id="clip0_104_2200">
<rect width="46.4569" height="46.4569" fill="white" transform="translate(43 11)"/>
</clipPath>
<clipPath id="clip1_104_2200">
<rect width="53" height="53" fill="white"/>
</clipPath>
</defs>
</svg>
