<svg width="83" height="66" viewBox="0 0 83 66" fill="none" xmlns="http://www.w3.org/2000/svg">
<path d="M81.7328 42.6633C81.8706 42.351 81.6418 42 81.3004 42H23.4482C23.0586 42 22.8364 42.4449 23.0704 42.7564L28.3602 49.7961C28.4495 49.9149 28.5894 49.9848 28.738 49.9848H78.194C78.3812 49.9848 78.5508 49.8743 78.6264 49.703L81.7328 42.6633Z" fill="#FEFCF3"/>
<g clip-path="url(#clip0_104_2178)">
<path d="M47.002 1L24.502 17L27.502 21V43H67.502L67.002 21.5L71.002 17L47.002 1Z" fill="#FEFCF3"/>
<path d="M81.9473 32.9149H67.2499M71.1684 33.0901V42.2252M75.2273 33.0901V42.2252M79.2862 33.0901V42.2252M67.2499 41.8344V19.4535M27.5356 19.4536V41.8344M62.8087 11.3544L48.5609 1.25857C48.2194 1.01665 47.8113 0.886719 47.3928 0.886719C46.9744 0.886719 46.5662 1.01665 46.2248 1.25857L24.0502 16.9712C23.9189 17.0641 23.83 17.2055 23.803 17.364C23.7759 17.5226 23.8129 17.6854 23.9059 17.8166L25.5408 20.1238C25.5868 20.1888 25.6452 20.2441 25.7126 20.2865C25.78 20.3289 25.8551 20.3576 25.9336 20.371C26.0121 20.3844 26.0925 20.3822 26.1701 20.3646C26.2478 20.3469 26.3212 20.3141 26.3862 20.2681L47.3928 5.38315L68.3993 20.2681C68.5306 20.3611 68.6934 20.3981 68.852 20.3711C69.0105 20.344 69.1518 20.2551 69.2448 20.1238L70.8797 17.8166C70.9727 17.6854 71.0097 17.5226 70.9827 17.364C70.9556 17.2055 70.8667 17.0641 70.7355 16.9712L66.5039 13.9726M67.2499 19.9773H27.5356M61.3352 15.4528V19.4535M57.5636 13.1722V19.4535M53.2974 9.56715V19.4535M49.5258 6.89469V19.4535M33.4503 15.4528V19.4535M37.2219 13.1722V19.4535M41.4881 9.56715V19.4535M45.2597 6.89469V19.4535M51.9016 41.9525V26.2385C51.9016 25.6008 51.3847 25.0837 50.7469 25.0837H43.9151C43.2774 25.0837 42.7603 25.6007 42.7603 26.2385V41.9525M59.7377 25.0837C61.4337 25.0837 62.8087 26.4587 62.8087 28.1548V34.9636C62.8087 35.0633 62.7891 35.162 62.7509 35.2541C62.7128 35.3462 62.6569 35.4299 62.5864 35.5003C62.5159 35.5708 62.4322 35.6267 62.3401 35.6649C62.2481 35.703 62.1494 35.7226 62.0497 35.7226H57.4256C57.2243 35.7226 57.0313 35.6427 56.8889 35.5003C56.7466 35.358 56.6666 35.1649 56.6666 34.9636V28.1548C56.6666 26.4587 58.0416 25.0837 59.7377 25.0837ZM59.7377 25.0837V35.7226M62.8087 30.4032H56.6666M34.9245 25.0837C33.2285 25.0837 31.8535 26.4587 31.8535 28.1548V34.9636C31.8535 35.1649 31.9335 35.358 32.0758 35.5003C32.2181 35.6427 32.4112 35.7226 32.6125 35.7226H37.2366C37.4378 35.7226 37.6309 35.6426 37.7732 35.5003C37.9156 35.358 37.9955 35.1649 37.9956 34.9636V28.1548C37.9956 26.4587 36.6206 25.0837 34.9245 25.0837ZM34.9245 25.0837V35.7226M31.8535 30.4032H37.9956M67.2499 35.7226H51.9016M27.5356 35.7226H42.5295M47.2768 33.6953V34.1252M43.9554 45.8937H80.8789C81.1623 45.8937 81.434 45.7812 81.6344 45.5808C81.8348 45.3804 81.9473 45.1087 81.9473 44.8253V43.2936C81.9473 43.0102 81.8348 42.7385 81.6344 42.5381C81.434 42.3377 81.1623 42.2252 80.8789 42.2252H24.3025C24.0192 42.2252 23.7474 42.3377 23.547 42.5381C23.3467 42.7385 23.2341 43.0102 23.2341 43.2936V44.8253C23.2341 45.1087 23.3467 45.3804 23.547 45.5808C23.7474 45.7812 24.0192 45.8937 24.3025 45.8937H39.7025M25.6769 45.8937V48.3244C25.6769 48.4619 25.704 48.598 25.7566 48.725C25.8092 48.852 25.8863 48.9674 25.9835 49.0646C26.0807 49.1619 26.1962 49.239 26.3232 49.2916C26.4502 49.3442 26.5863 49.3713 26.7238 49.3713H78.4575C78.595 49.3713 78.7311 49.3442 78.8581 49.2916C78.9851 49.239 79.1006 49.1619 79.1978 49.0646C79.295 48.9674 79.3721 48.852 79.4247 48.725C79.4773 48.598 79.5044 48.4619 79.5044 48.3244V45.8937H46.6254M72.9563 49.3714H67.5515V59.6H72.9563V49.3714ZM37.6298 49.3714H32.225V59.6H37.6298V49.3714Z" stroke="#8E8D8A" stroke-width="1.77203" stroke-miterlimit="10" stroke-linecap="round" stroke-linejoin="round"/>
<path d="M62.0469 0.885742C59.7309 0.885883 57.8536 2.76399 57.8536 5.08008V7.84766L66.2413 13.7666V5.08008C66.2413 2.7639 64.3631 0.885742 62.0469 0.885742Z" fill="#FEFCF3" stroke="#8E8D8A" stroke-width="1.77203"/>
<path d="M64.6432 3.3063C63.2775 5.14017 63.9786 5.77319 65.5946 6.79466" stroke="#8E8D8A" stroke-width="1.77203" stroke-linecap="round"/>
<path d="M70.0008 1.48561L70.7853 4.12957L64.4765 5.10422L70.0008 1.48561Z" stroke="#8E8D8A" stroke-width="1.65389"/>
</g>
<path d="M25.9172 20.6745L3.09893 25.3872L2.54725 22.716L24.3103 17.959L25.9172 20.6745Z" stroke="#8E8D8A" stroke-width="1.77203"/>
<mask id="path-8-inside-1_104_2178" fill="white">
<rect width="24.6903" height="4.96168" rx="0.472541" transform="matrix(-1 0 0 1 28.2598 36.9766)"/>
</mask>
<rect width="24.6903" height="4.96168" rx="0.472541" transform="matrix(-1 0 0 1 28.2598 36.9766)" fill="#FEFCF3" stroke="#8E8D8A" stroke-width="3.30779" mask="url(#path-8-inside-1_104_2178)"/>
<line x1="0.886015" y1="-0.886015" x2="21.0871" y2="-0.886015" transform="matrix(-1 0 0 1 28.0176 33.9062)" stroke="#8E8D8A" stroke-width="1.77203" stroke-linecap="round"/>
<line x1="0.886015" y1="-0.886015" x2="3.72126" y2="-0.886015" transform="matrix(-4.37113e-08 1 1 4.37113e-08 21.7598 33.1953)" stroke="#8E8D8A" stroke-width="1.77203" stroke-linecap="round"/>
<line x1="0.886015" y1="-0.886015" x2="3.72126" y2="-0.886015" transform="matrix(-4.37113e-08 1 1 4.37113e-08 14.5567 33.1953)" stroke="#8E8D8A" stroke-width="1.77203" stroke-linecap="round"/>
<line x1="0.886015" y1="-0.886015" x2="12.3451" y2="-0.886015" transform="matrix(-4.37114e-08 1 1 4.37114e-08 7.58795 24.5742)" stroke="#8E8D8A" stroke-width="1.77203" stroke-linecap="round"/>
<path d="M18.2325 39.3008C13.0017 39.3008 8.8067 43.402 8.8067 48.4062C8.80682 53.4104 13.0018 57.5117 18.2325 57.5117C23.4632 57.5117 27.6581 53.4104 27.6583 48.4062C27.6583 43.402 23.4633 39.3008 18.2325 39.3008Z" fill="#FEFCF3" stroke="#8E8D8A" stroke-width="1.65562"/>
<path d="M22.7208 47.1552V54.6568C22.7208 54.8525 22.5621 55.0112 22.3664 55.0112H17.1684C16.9727 55.0112 16.814 54.8525 16.814 54.6568V47.1552C16.814 46.9595 16.9727 46.8008 17.1684 46.8008H22.3664C22.5621 46.8008 22.7208 46.9595 22.7208 47.1552Z" stroke="#8E8D8A" stroke-width="1.65389"/>
<path d="M14.3926 46.5185V48.763C14.3926 48.9588 14.234 49.1174 14.0382 49.1174H11.6755C11.4798 49.1174 11.3211 48.9588 11.3211 48.763V46.5185C11.3211 46.3227 11.4798 46.1641 11.6755 46.1641H14.0382C14.234 46.1641 14.3926 46.3227 14.3926 46.5185Z" stroke="#8E8D8A" stroke-width="1.65389"/>
<line x1="0.886015" y1="-0.886015" x2="5.76054" y2="-0.886015" transform="matrix(-0.810479 -0.585768 -0.585768 0.810479 9.77545 45.8359)" stroke="#8E8D8A" stroke-width="1.77203" stroke-linecap="round"/>
<mask id="path-17-inside-2_104_2178" fill="white">
<rect width="82.0255" height="7.98478" rx="0.472541" transform="matrix(-1 0 0 1 82.0255 57.3438)"/>
</mask>
<rect width="82.0255" height="7.98478" rx="0.472541" transform="matrix(-1 0 0 1 82.0255 57.3438)" fill="#FEFCF3" stroke="#8E8D8A" stroke-width="3.30779" mask="url(#path-17-inside-2_104_2178)"/>
<defs>
<clipPath id="clip0_104_2178">
<rect width="60.4853" height="60.4853" fill="white" transform="matrix(-1 0 0 1 82.838 0)"/>
</clipPath>
</defs>
</svg>
