<svg width="93" height="62" viewBox="0 0 93 62" fill="none" xmlns="http://www.w3.org/2000/svg">
<mask id="path-1-inside-1_104_2261" fill="white">
<path d="M15.9697 29.8771C23.4099 29.8772 29.6613 34.9655 31.435 41.852C31.4898 42.0648 31.68 42.217 31.8997 42.217H56.8751C57.1361 42.217 57.3477 42.0054 57.3477 41.7444V35.3146C57.3477 35.0537 57.5593 34.842 57.8203 34.842H63.9648C64.2258 34.842 64.4375 35.0537 64.4375 35.3146V41.7444C64.4375 42.0054 64.6491 42.217 64.91 42.217H68.4884C68.7494 42.217 68.9609 42.0054 68.9609 41.7444V35.4279C68.9609 35.1671 69.1719 34.9555 69.4326 34.9553H76.4727C76.7336 34.9553 76.9453 35.1669 76.9453 35.4279V41.7444C76.9453 42.0054 77.1569 42.217 77.4179 42.217H80.8361C81.097 42.217 81.3086 42.0054 81.3086 41.7444V35.3146C81.3086 35.0537 81.5203 34.842 81.7812 34.842H87.9258C88.1868 34.842 88.3984 35.0537 88.3984 35.3146V50.1252C88.3984 50.3862 88.1868 50.5978 87.9258 50.5978C87.8531 50.5978 87.7911 50.6468 87.7523 50.7082C87.669 50.8401 87.5231 50.9279 87.3555 50.9279H31.4542C31.2511 50.9279 31.0713 51.0582 31.0026 51.2493C28.788 57.4104 22.8932 61.8165 15.9697 61.8166C7.15004 61.8166 9.17472e-05 54.6665 0 45.8469C0 37.0271 7.14998 29.8771 15.9697 29.8771Z"/>
</mask>
<path d="M15.9697 29.8771C23.4099 29.8772 29.6613 34.9655 31.435 41.852C31.4898 42.0648 31.68 42.217 31.8997 42.217H56.8751C57.1361 42.217 57.3477 42.0054 57.3477 41.7444V35.3146C57.3477 35.0537 57.5593 34.842 57.8203 34.842H63.9648C64.2258 34.842 64.4375 35.0537 64.4375 35.3146V41.7444C64.4375 42.0054 64.6491 42.217 64.91 42.217H68.4884C68.7494 42.217 68.9609 42.0054 68.9609 41.7444V35.4279C68.9609 35.1671 69.1719 34.9555 69.4326 34.9553H76.4727C76.7336 34.9553 76.9453 35.1669 76.9453 35.4279V41.7444C76.9453 42.0054 77.1569 42.217 77.4179 42.217H80.8361C81.097 42.217 81.3086 42.0054 81.3086 41.7444V35.3146C81.3086 35.0537 81.5203 34.842 81.7812 34.842H87.9258C88.1868 34.842 88.3984 35.0537 88.3984 35.3146V50.1252C88.3984 50.3862 88.1868 50.5978 87.9258 50.5978C87.8531 50.5978 87.7911 50.6468 87.7523 50.7082C87.669 50.8401 87.5231 50.9279 87.3555 50.9279H31.4542C31.2511 50.9279 31.0713 51.0582 31.0026 51.2493C28.788 57.4104 22.8932 61.8165 15.9697 61.8166C7.15004 61.8166 9.17472e-05 54.6665 0 45.8469C0 37.0271 7.14998 29.8771 15.9697 29.8771Z" fill="#FEFCF3"/>
<path d="M15.9697 29.8771L15.9697 28.2232H15.9697V29.8771ZM69.4326 34.9553V33.3014L69.431 33.3014L69.4326 34.9553ZM88.3984 50.1252L90.0523 50.1252V50.1252H88.3984ZM15.9697 61.8166V63.4705H15.9697L15.9697 61.8166ZM0 45.8469H-1.65389V45.8469L0 45.8469ZM87.7523 50.7082L89.1504 51.5918L87.7523 50.7082ZM31.0026 51.2493L32.559 51.8088L31.0026 51.2493ZM31.435 41.852L33.0366 41.4395L31.435 41.852ZM15.9697 29.8771L15.9697 31.531C22.637 31.5311 28.2432 36.0908 29.8334 42.2645L31.435 41.852L33.0366 41.4395C31.0793 33.8403 24.1828 28.2233 15.9697 28.2232L15.9697 29.8771ZM31.8997 42.217V43.8709H56.8751V42.217V40.5631H31.8997V42.217ZM57.3477 41.7444H59.0015V35.3146H57.3477H55.6938V41.7444H57.3477ZM57.3477 35.3146H59.0015C59.0015 35.9671 58.4728 36.4959 57.8203 36.4959V34.842V33.1881C56.6459 33.1881 55.6938 34.1402 55.6938 35.3146H57.3477ZM57.8203 34.842V36.4959H63.9648V34.842V33.1881H57.8203V34.842ZM63.9648 34.842V36.4959C63.3124 36.4959 62.7836 35.9671 62.7836 35.3146H64.4375H66.0914C66.0914 34.1402 65.1392 33.1881 63.9648 33.1881V34.842ZM64.4375 35.3146H62.7836V41.7444H64.4375H66.0914V35.3146H64.4375ZM64.91 42.217V43.8709H68.4884V42.217V40.5631H64.91V42.217ZM68.9609 41.7444H70.6148V35.4279H68.9609H67.307V41.7444H68.9609ZM68.9609 35.4279H70.6148C70.6148 36.0776 70.0885 36.6085 69.4342 36.6092L69.4326 34.9553L69.431 33.3014C68.2552 33.3025 67.307 34.2566 67.307 35.4279H68.9609ZM69.4326 34.9553V36.6092H76.4727V34.9553V33.3014H69.4326V34.9553ZM76.4727 34.9553V36.6092C75.8202 36.6092 75.2914 36.0804 75.2914 35.4279H76.9453H78.5992C78.5992 34.2535 77.6471 33.3014 76.4727 33.3014V34.9553ZM76.9453 35.4279H75.2914V41.7444H76.9453H78.5992V35.4279H76.9453ZM77.4179 42.217V43.8709H80.8361V42.217V40.5631H77.4179V42.217ZM81.3086 41.7444H82.9625V35.3146H81.3086H79.6547V41.7444H81.3086ZM81.3086 35.3146H82.9625C82.9625 35.9671 82.4337 36.4959 81.7812 36.4959V34.842V33.1881C80.6068 33.1881 79.6547 34.1402 79.6547 35.3146H81.3086ZM81.7812 34.842V36.4959H87.9258V34.842V33.1881H81.7812V34.842ZM87.9258 34.842V36.4959C87.2733 36.4959 86.7445 35.9671 86.7445 35.3146H88.3984H90.0523C90.0523 34.1402 89.1002 33.1881 87.9258 33.1881V34.842ZM88.3984 35.3146H86.7445V50.1252H88.3984H90.0523V35.3146H88.3984ZM88.3984 50.1252L86.7445 50.1251C86.7446 49.4728 87.2733 48.9439 87.9258 48.9439V50.5978V52.2517C89.1002 52.2517 90.0523 51.2995 90.0523 50.1252L88.3984 50.1252ZM87.7523 50.7082L86.3542 49.8246C86.5577 49.5027 86.9259 49.274 87.3555 49.274V50.9279V52.5818C88.1202 52.5818 88.7803 52.1774 89.1504 51.5918L87.7523 50.7082ZM87.3555 50.9279V49.274H31.4542V50.9279V52.5818H87.3555V50.9279ZM31.0026 51.2493L29.4462 50.6899C27.4601 56.2152 22.1736 60.1626 15.9697 60.1627L15.9697 61.8166L15.9697 63.4705C23.6128 63.4704 30.1159 58.6056 32.559 51.8088L31.0026 51.2493ZM15.9697 61.8166V60.1627C8.06348 60.1627 1.65398 53.7531 1.65389 45.8468L0 45.8469L-1.65389 45.8469C-1.65379 55.5799 6.2366 63.4705 15.9697 63.4705V61.8166ZM0 45.8469H1.65389C1.65389 37.9405 8.0634 31.531 15.9697 31.531V29.8771V28.2232C6.23656 28.2232 -1.65389 36.1137 -1.65389 45.8469H0ZM87.9258 50.5978V48.9439C87.0753 48.9439 86.5634 49.4937 86.3542 49.8246L87.7523 50.7082L89.1504 51.5918C89.0189 51.7998 88.6308 52.2517 87.9258 52.2517V50.5978ZM80.8361 42.217V43.8709C82.0105 43.8709 82.9625 42.9188 82.9625 41.7444H81.3086H79.6547C79.6547 41.092 80.1836 40.5631 80.8361 40.5631V42.217ZM56.8751 42.217V43.8709C58.0495 43.8709 59.0015 42.9188 59.0015 41.7444H57.3477H55.6938C55.6938 41.092 56.2227 40.5631 56.8751 40.5631V42.217ZM76.9453 41.7444H75.2914C75.2914 42.9188 76.2435 43.8709 77.4179 43.8709V42.217V40.5631C78.0703 40.5631 78.5992 41.092 78.5992 41.7444H76.9453ZM68.4884 42.217V43.8709C69.6628 43.8709 70.6148 42.9188 70.6148 41.7444H68.9609H67.307C67.307 41.092 67.836 40.5631 68.4884 40.5631V42.217ZM64.4375 41.7444H62.7836C62.7836 42.9188 63.7356 43.8709 64.91 43.8709V42.217V40.5631C65.5625 40.5631 66.0914 41.092 66.0914 41.7444H64.4375ZM31.4542 50.9279V49.274C30.5316 49.274 29.7434 49.863 29.4462 50.6899L31.0026 51.2493L32.559 51.8088C32.3992 52.2535 31.9707 52.5818 31.4542 52.5818V50.9279ZM31.435 41.852L29.8334 42.2645C30.07 43.1832 30.9001 43.8709 31.8997 43.8709V42.217V40.5631C32.4598 40.5631 32.9096 40.9464 33.0366 41.4395L31.435 41.852Z" fill="#8E8D8A" mask="url(#path-1-inside-1_104_2261)"/>
<path d="M27.5865 46.2052C27.5865 47.7781 27.2767 49.3355 26.6748 50.7887C26.0729 52.2418 25.1906 53.5621 24.0784 54.6743C22.9663 55.7865 21.6459 56.6687 20.1928 57.2707C18.7396 57.8726 17.1822 58.1824 15.6093 58.1824" stroke="#8E8D8A" stroke-width="1.45178"/>
<circle cx="15.9678" cy="45.841" r="8.60904" fill="#EAE7DC" stroke="#8E8D8A" stroke-width="1.65503"/>
<path d="M58.1709 12.925V31.9484H87.7354V12.925L72.9561 4.2951L58.1709 12.925Z" fill="#FEFCF3" stroke="#8E8D8A" stroke-width="1.65389"/>
<mask id="path-6-inside-2_104_2261" fill="white">
<path d="M73.3125 20.9083C73.3125 20.6473 73.1009 20.4357 72.84 20.4357H62.8967C62.6357 20.4357 62.4242 20.6473 62.4242 20.9083V32.3033C62.4242 32.5643 62.6357 32.7758 62.8967 32.7758H72.84C73.1009 32.7758 73.3125 32.5643 73.3125 32.3033V20.9083Z"/>
</mask>
<path d="M73.3125 20.9083C73.3125 20.6473 73.1009 20.4357 72.84 20.4357H62.8967C62.6357 20.4357 62.4242 20.6473 62.4242 20.9083V32.3033C62.4242 32.5643 62.6357 32.7758 62.8967 32.7758H72.84C73.1009 32.7758 73.3125 32.5643 73.3125 32.3033V20.9083Z" fill="#FEFCF3" stroke="#8E8D8A" stroke-width="3.30779" mask="url(#path-6-inside-2_104_2261)"/>
<mask id="path-7-inside-3_104_2261" fill="white">
<path d="M84.9297 20.9083C84.9297 20.6473 84.7181 20.4357 84.4571 20.4357H74.5139C74.2529 20.4357 74.0414 20.6473 74.0414 20.9083V28.6739C74.0414 28.9348 74.2529 29.1464 74.5139 29.1464H84.4571C84.7181 29.1464 84.9297 28.9348 84.9297 28.6739V20.9083Z"/>
</mask>
<path d="M84.9297 20.9083C84.9297 20.6473 84.7181 20.4357 84.4571 20.4357H74.5139C74.2529 20.4357 74.0414 20.6473 74.0414 20.9083V28.6739C74.0414 28.9348 74.2529 29.1464 74.5139 29.1464H84.4571C84.7181 29.1464 84.9297 28.9348 84.9297 28.6739V20.9083Z" fill="#FEFCF3" stroke="#8E8D8A" stroke-width="3.30779" mask="url(#path-7-inside-3_104_2261)"/>
<path d="M73.2151 1.00266L55.6355 10.4949C55.2975 10.6775 55.1948 11.1143 55.4163 11.4282L56.7949 13.3828C56.979 13.6439 57.3274 13.7294 57.6115 13.5834L73.3526 5.49291C73.5411 5.39604 73.7653 5.3986 73.9515 5.49977L89.6413 14.0237C89.9583 14.1959 90.3549 14.0727 90.5184 13.7511L91.7168 11.3949C91.8744 11.0851 91.7562 10.7062 91.4506 10.5408L73.8245 1.00294C73.6344 0.900062 73.4053 0.899958 73.2151 1.00266Z" fill="#FEFCF3" stroke="#8E8D8A" stroke-width="1.85138"/>
<path d="M58.4375 17.4323L70.313 17.4318" stroke="#8E8D8A" stroke-width="1.65503" stroke-linecap="round"/>
<path d="M69 12.8381H87" stroke="#8E8D8A" stroke-width="1.65503" stroke-linecap="round"/>
<path d="M59 12.8381H66" stroke="#8E8D8A" stroke-width="1.65503" stroke-linecap="round"/>
<path d="M35.5703 47.2912H54.4434" stroke="#8E8D8A" stroke-width="1.65503" stroke-linecap="round"/>
<path d="M71.8672 47.2912L84.9332 47.2912" stroke="#8E8D8A" stroke-width="1.65503" stroke-linecap="round"/>
<path d="M58.0703 47.2912L63.1515 47.2912" stroke="#8E8D8A" stroke-width="1.65503" stroke-linecap="round"/>
<line x1="82.8588" y1="17.4324" x2="87.7367" y2="17.4324" stroke="#8E8D8A" stroke-width="1.65503" stroke-linecap="round"/>
</svg>
